<?xml version="1.0" encoding="utf-8"?>
<!-- Generator: Adobe Illustrator 16.0.0, SVG Export Plug-In . SVG Version: 6.00 Build 0)  -->
<!DOCTYPE svg PUBLIC "-//W3C//DTD SVG 1.1//EN" "http://www.w3.org/Graphics/SVG/1.1/DTD/svg11.dtd">
<svg version="1.1" id="Layer_1" xmlns="http://www.w3.org/2000/svg" xmlns:xlink="http://www.w3.org/1999/xlink" x="0px" y="0px"
	 width="50.1083984px" height="20px" viewBox="0 0 50.1083984 20" enable-background="new 0 0 50.1083984 20" xml:space="preserve">
<g>
	<path fill="#FFFFFF" d="M7.4067383,15.8798828c-1.0952148,0-1.8862305-0.0263672-2.6450195-0.0888672l-0.2753906-0.0224609
		V3.6386719l0.2485352-0.0429688c1.0351562-0.1791992,2.0405273-0.2661133,3.0737305-0.2661133
		c2.1958008,0,3.9140625,0.5878906,4.9697266,1.7001953c1.0283203,1.0668945,1.5507812,2.5126953,1.5507812,4.2949219
		c0,1.9125977-0.5439453,3.4790039-1.6162109,4.6567383C11.6030273,15.2060547,9.7182617,15.8798828,7.4067383,15.8798828z
		 M5.9248047,14.5273438c0.4824219,0.046875,1.0976562,0.0537109,1.6044922,0.0537109
		c3.4453125,0,5.3427734-1.8544922,5.3427734-5.2211914c0.0166016-1.4604492-0.3769531-2.6064453-1.1704102-3.4091797
		c-0.8671875-0.8774414-2.1943359-1.3227539-3.9453125-1.3227539c-0.7998047,0-1.4111328,0.0693359-1.831543,0.1411133V14.5273438z"
		/>
	<path fill="#FFFFFF" d="M19.5185547,15.9667969c-2.5195312,0-4.2128906-1.8125-4.2128906-4.5097656
		c0-2.8515625,1.6748047-4.8432617,4.0732422-4.8432617c2.8164062,0,3.5673828,2.5717773,3.5673828,4.0913086
		c0,0.2387695,0,0.3828125-0.0419922,0.5722656l-0.0527344,0.234375h-6.1191406c0.09375,2,1.1357422,3.1396484,2.890625,3.1396484
		c1.1210938,0,1.7167969-0.2128906,2.1943359-0.4433594l0.3095703-0.1494141l0.390625,1.2089844l-0.2158203,0.1201172
		C21.9882812,15.5615234,21.0898438,15.9667969,19.5185547,15.9667969z M21.4638672,10.2480469
		c-0.03125-0.4628906-0.1650391-1.2436523-0.6865234-1.7734375c-0.3671875-0.3725586-0.8730469-0.5620117-1.5039062-0.5620117
		c-1.7353516,0-2.2783203,1.5678711-2.4404297,2.3354492H21.4638672z"/>
	<path fill="#FFFFFF" d="M35.1904297,15.7919922v-5.1743164c0-1.2338867-0.3271484-2.7050781-1.8837891-2.7050781
		c-0.9414062,0-1.6435547,0.7368164-1.9208984,1.4663086c-0.0546875,0.1933594-0.1210938,0.4487305-0.1210938,0.7319336v5.6811523
		h-1.4375v-5.5585938c0-1.453125-0.6660156-2.3208008-1.7802734-2.3208008c-1.0292969,0-1.7783203,0.8701172-2.0380859,1.6787109
		c-0.0712891,0.2529297-0.1074219,0.4946289-0.1074219,0.7294922v5.4711914h-1.4384766V9.1152344
		c0-0.7973633-0.0195312-1.3544922-0.0683594-1.9858398l-0.0253906-0.3232422h1.3984375l0.0332031,0.9067383
		c0.6376953-0.7382812,1.4589844-1.0991211,2.4912109-1.0991211c1.0400391,0,1.9414062,0.5566406,2.4560547,1.4858398
		c0.2265625-0.3398438,0.4667969-0.5791016,0.6533203-0.7348633c0.6542969-0.5273438,1.3066406-0.7509766,2.1845703-0.7509766
		c0.5078125,0,3.0419922,0.1894531,3.0419922,3.934082v5.2441406H35.1904297z"/>
	<path fill="#FFFFFF" d="M42.3251953,15.984375c-2.4013672,0-4.1435547-1.9404297-4.1435547-4.6152344
		c0-3.1220703,2.1455078-4.7553711,4.265625-4.7553711c2.4707031,0,4.1962891,1.8974609,4.1962891,4.6147461
		c0,3.1220703-2.1630859,4.7558594-4.3007812,4.7558594H42.3251953z M42.4296875,7.9125977
		c-1.9404297,0-2.8095703,1.7094727-2.8095703,3.4038086c0,1.9208984,1.1777344,3.3691406,2.7392578,3.3691406
		c1.6298828,0,2.8457031-1.4716797,2.8457031-3.421875C45.2050781,9.9165039,44.4658203,7.9125977,42.4296875,7.9125977z"/>
</g>
</svg>
