<?xml version="1.0" encoding="utf-8"?>
<!-- Generator: Adobe Illustrator 16.0.0, SVG Export Plug-In . SVG Version: 6.00 Build 0)  -->
<!DOCTYPE svg PUBLIC "-//W3C//DTD SVG 1.1//EN" "http://www.w3.org/Graphics/SVG/1.1/DTD/svg11.dtd">
<svg version="1.1" id="Layer_1" xmlns="http://www.w3.org/2000/svg" xmlns:xlink="http://www.w3.org/1999/xlink" x="0px" y="0px"
	 width="124.909668px" height="20px" viewBox="0 0 124.909668 20" enable-background="new 0 0 124.909668 20" xml:space="preserve">
<g>
	<path fill="#FFFFFF" d="M9.9682617,15.4511719c-1.09375,0-1.8847656-0.0253906-2.6450195-0.0878906l-0.2753906-0.0224609V3.2109375
		l0.2485352-0.0429688c1.0351562-0.1791992,2.0405273-0.2661133,3.0737305-0.2661133
		c2.1953125,0,3.9140625,0.5878906,4.9702148,1.7001953c1.027832,1.0664062,1.5498047,2.512207,1.5498047,4.2949219
		c0,1.9125977-0.543457,3.4790039-1.6157227,4.6577148C14.1640625,14.7773438,12.2792969,15.4511719,9.9682617,15.4511719z
		 M8.4863281,14.0996094c0.3774414,0.0371094,0.8881836,0.0537109,1.6044922,0.0537109
		c3.4453125,0,5.3432617-1.8544922,5.3432617-5.2211914c0.0170898-1.4604492-0.3769531-2.605957-1.1704102-3.4091797
		c-0.8671875-0.8774414-2.1948242-1.3227539-3.9458008-1.3227539c-0.7998047,0-1.4111328,0.0693359-1.831543,0.1411133V14.0996094z"
		/>
	<path fill="#FFFFFF" d="M22.0102539,15.5566406c-2.4008789,0-4.1435547-1.9414062-4.1435547-4.6152344
		c0-3.1220703,2.1459961-4.7553711,4.265625-4.7553711c2.4707031,0,4.1962891,1.8979492,4.1962891,4.6152344
		c0,3.1225586-2.1635742,4.7553711-4.3007812,4.7553711H22.0102539z M22.1152344,7.4848633
		c-1.940918,0-2.8100586,1.7094727-2.8100586,3.4038086c0,1.9199219,1.1777344,3.3691406,2.7397461,3.3691406
		c1.6293945,0,2.8452148-1.4707031,2.8452148-3.4213867C24.8901367,9.4892578,24.1508789,7.4848633,22.1152344,7.4848633z"/>
	<path fill="#FFFFFF" d="M31.7099609,15.5390625c-2.5424805,0-4.3183594-1.8828125-4.3183594-4.5805664
		c0-2.8100586,1.8979492-4.7724609,4.6157227-4.7724609c1.03125,0,1.9765625,0.2919922,2.3769531,0.5810547l0.1953125,0.1416016
		l-0.53125,1.2177734l-0.2929688-0.1787109c-0.3339844-0.203125-0.9199219-0.4458008-1.8183594-0.4458008
		c-2.2929688,0-3.1069336,1.824707-3.1069336,3.3867188c0,1.9941406,1.2133789,3.3339844,3.019043,3.3339844
		c0.9697266,0,1.5966797-0.2890625,1.9716797-0.4609375l0.3017578-0.1396484l0.421875,1.2314453L34.3022461,14.96875
		C33.5151367,15.3417969,32.6196289,15.5390625,31.7099609,15.5390625z"/>
	<path fill="#FFFFFF" d="M38.9614258,15.5566406c-0.7431641,0-3.1650391-0.2890625-3.1650391-4.0039062V6.378418h1.4384766
		v5.0170898c0,2.5341797,1.0947266,2.8271484,1.9189453,2.8271484c1.1386719,0,1.9003906-0.8164062,2.2060547-1.5146484
		c0.0439453-0.1337891,0.1318359-0.453125,0.1318359-0.8056641V6.378418h1.4384766v6.6420898
		c0,0.796875,0.0224609,1.4384766,0.0693359,2.0205078l0.0253906,0.3232422h-1.4003906L41.5913086,14.40625
		C41.0131836,15.0371094,40.1245117,15.5566406,38.9614258,15.5566406z"/>
	<path fill="#FFFFFF" d="M55.8452148,15.3642578v-5.1743164c0-1.2338867-0.3261719-2.7050781-1.8837891-2.7050781
		c-0.9423828,0-1.6435547,0.7368164-1.9208984,1.4663086c-0.0537109,0.1928711-0.1201172,0.4482422-0.1201172,0.7319336v5.6811523
		h-1.4384766V9.8056641c0-1.453125-0.6650391-2.3208008-1.7792969-2.3208008c-1.0292969,0-1.7783203,0.8701172-2.0380859,1.6787109
		c-0.0703125,0.2475586-0.1083984,0.4960938-0.1083984,0.7294922v5.4711914h-1.4375V8.6875
		c0-0.7988281-0.0195312-1.3554688-0.0703125-1.9858398L45.0229492,6.378418h1.4003906l0.0332031,0.90625
		c0.6376953-0.737793,1.4589844-1.0986328,2.4902344-1.0986328c1.0410156,0,1.9414062,0.5566406,2.4570312,1.4858398
		c0.2265625-0.3398438,0.4667969-0.5791016,0.6542969-0.7348633c0.6523438-0.5273438,1.3046875-0.7509766,2.1835938-0.7509766
		c0.5078125,0,3.0419922,0.1894531,3.0419922,3.934082v5.2441406H55.8452148z"/>
	<path fill="#FFFFFF" d="M63.0795898,15.5390625c-2.5195312,0-4.2128906-1.8125-4.2128906-4.5097656
		c0-2.8520508,1.6757812-4.8432617,4.0742188-4.8432617c2.8154297,0,3.5664062,2.5717773,3.5664062,4.0913086
		c0,0.2387695,0,0.3828125-0.0419922,0.5722656l-0.0527344,0.234375h-6.1181641c0.09375,2,1.1347656,3.1386719,2.890625,3.1386719
		c1.1210938,0,1.7167969-0.2119141,2.1933594-0.4414062l0.3105469-0.1494141l0.390625,1.2080078l-0.2158203,0.1201172
		C65.550293,15.1347656,64.6499023,15.5390625,63.0795898,15.5390625z M65.0258789,9.8203125
		c-0.03125-0.4628906-0.1650391-1.2436523-0.6865234-1.7734375c-0.3671875-0.3725586-0.8730469-0.5620117-1.5039062-0.5620117
		c-1.7363281,0-2.2792969,1.5678711-2.4414062,2.3354492H65.0258789z"/>
	<path fill="#FFFFFF" d="M73.8071289,15.3642578v-5.2617188c0-1.1938477-0.3505859-2.6176758-2.0244141-2.6176758
		c-1.0058594,0-1.921875,0.7099609-2.2285156,1.7255859c-0.0566406,0.2089844-0.0917969,0.4541016-0.0917969,0.6474609v5.5063477
		h-1.4384766V8.6875c0-0.8046875-0.0195312-1.3613281-0.0693359-1.9853516L67.9291992,6.378418h1.4003906l0.0332031,0.9296875
		c0.6425781-0.699707,1.6074219-1.1220703,2.6474609-1.1220703c1.4921875,0,3.2353516,1.0073242,3.2353516,3.8466797v5.331543
		H73.8071289z"/>
	<path fill="#FFFFFF" d="M79.7670898,15.5390625c-0.7216797,0-1.296875-0.2373047-1.6640625-0.6865234
		c-0.3964844-0.4501953-0.5927734-1.1728516-0.5927734-2.1992188V7.6591797h-1.4150391V6.378418h1.4150391V4.9326172
		l1.4384766-0.5390625V6.378418h2.3935547v1.2807617h-2.3935547v5.1513672c0,1.2675781,0.4941406,1.4296875,0.9238281,1.4296875
		c0.4492188,0,0.71875-0.0585938,0.8652344-0.1074219l0.3339844-0.1103516l0.2021484,1.2177734l-0.2314453,0.0878906
		C80.6694336,15.46875,80.2397461,15.5390625,79.7670898,15.5390625z"/>
	<path fill="#FFFFFF" d="M84.7319336,15.5566406c-1.8984375,0-2.7636719-1.3515625-2.7636719-2.6064453
		c0-1.2470703,0.6699219-3.3286133,5.1191406-3.3745117c-0.0205078-1.4067383-0.6152344-2.0908203-1.8183594-2.0908203
		c-0.7646484,0-1.453125,0.2036133-1.9707031,0.5732422l-0.3027344,0.2167969L82.487793,7.0898438l0.2089844-0.1381836
		c0.7285156-0.4794922,1.7109375-0.765625,2.6289062-0.765625c2.0644531,0,3.2001953,1.2792969,3.2001953,3.6020508v3.2841797
		c0,0.5996094,0.0146484,1.2998047,0.1181641,1.9443359l0.0566406,0.3476562h-1.3925781l-0.0810547-0.8027344
		C86.668457,15.1035156,85.8178711,15.5566406,84.7319336,15.5566406z M87.0014648,10.8686523
		c-2.3613281,0-3.5595703,0.652832-3.5595703,1.9418945c0,1.0664062,0.7119141,1.4472656,1.3779297,1.4472656
		c1.25,0,1.953125-0.7617188,2.1953125-1.4746094c0.0488281-0.1201172,0.0722656-0.2597656,0.0722656-0.4091797v-1.5048828
		C87.0581055,10.8686523,87.0297852,10.8686523,87.0014648,10.8686523z"/>
	<path fill="#FFFFFF" d="M93.0737305,15.5390625c-0.7216797,0-1.296875-0.2373047-1.6640625-0.6865234
		c-0.3964844-0.4501953-0.5927734-1.1728516-0.5927734-2.1992188V7.6591797h-1.4150391V6.378418h1.4150391V4.9326172
		l1.4384766-0.5390625V6.378418h2.3935547v1.2807617h-2.3935547v5.1513672c0,1.2675781,0.4941406,1.4296875,0.9238281,1.4296875
		c0.4492188,0,0.71875-0.0585938,0.8652344-0.1074219l0.3339844-0.1103516l0.2021484,1.2177734l-0.2314453,0.0878906
		C93.9760742,15.46875,93.5463867,15.5390625,93.0737305,15.5390625z"/>
	<path fill="#FFFFFF" d="M95.9116211,15.3642578V6.378418h1.4375v8.9858398H95.9116211z M96.5952148,5.3007812
		c-0.5302734,0-0.9453125-0.4462891-0.9453125-1.0161133c0-0.5703125,0.4394531-1.0336914,0.9804688-1.0336914
		s0.9638672,0.4541016,0.9638672,1.0336914s-0.421875,1.0161133-0.9814453,1.0161133H96.5952148z"/>
	<path fill="#FFFFFF" d="M103.0385742,15.5566406c-2.4003906,0-4.1435547-1.9414062-4.1435547-4.6152344
		c0-3.1220703,2.1455078-4.7553711,4.265625-4.7553711c2.4707031,0,4.1962891,1.8979492,4.1962891,4.6152344
		c0,3.1225586-2.1640625,4.7553711-4.3007812,4.7553711H103.0385742z M103.144043,7.4848633
		c-1.9414062,0-2.8105469,1.7094727-2.8105469,3.4038086c0,1.9199219,1.1777344,3.3691406,2.7402344,3.3691406
		c1.6289062,0,2.8447266-1.4707031,2.8447266-3.4213867C105.918457,9.4892578,105.1791992,7.4848633,103.144043,7.4848633z"/>
	<path fill="#FFFFFF" d="M114.7553711,15.3642578v-5.2617188c0-1.1938477-0.3515625-2.6176758-2.0244141-2.6176758
		c-1.0058594,0-1.9228516,0.7099609-2.2294922,1.7255859c-0.0566406,0.2089844-0.0917969,0.4541016-0.0917969,0.6474609v5.5063477
		h-1.4375V8.6875c0-0.7988281-0.0195312-1.3554688-0.0703125-1.9858398l-0.0253906-0.3232422h1.4003906l0.0332031,0.9296875
		c0.6425781-0.699707,1.6074219-1.1220703,2.6484375-1.1220703c1.4921875,0,3.234375,1.0073242,3.234375,3.8466797v5.331543
		H114.7553711z"/>
</g>
</svg>
