<?xml version="1.0" encoding="utf-8"?>
<!-- Generator: Adobe Illustrator 16.0.0, SVG Export Plug-In . SVG Version: 6.00 Build 0)  -->
<!DOCTYPE svg PUBLIC "-//W3C//DTD SVG 1.1//EN" "http://www.w3.org/Graphics/SVG/1.1/DTD/svg11.dtd">
<svg version="1.1" id="Layer_1" xmlns="http://www.w3.org/2000/svg" xmlns:xlink="http://www.w3.org/1999/xlink" x="0px" y="0px"
	 width="421px" height="51px" viewBox="0 0 421 51" enable-background="new 0 0 421 51" xml:space="preserve">
<g>
	<path fill="#FFFFFF" d="M7.3837891,5.4267578v33.4775391H6.3408203V5.4267578H7.3837891z"/>
	<path fill="#FFFFFF" d="M16.1499023,9.7480469v5.1655273h5.9106445v0.7949219h-5.9106445v15.3969727
		c0,1.1933594,0.0498047,2.2441406,0.1489258,3.1542969c0.0996094,0.9121094,0.28125,1.6816406,0.5463867,2.3105469
		c0.2646484,0.6289062,0.6210938,1.109375,1.0678711,1.4394531c0.4472656,0.3320312,1.034668,0.4970703,1.7636719,0.4970703
		c0.4628906,0,0.8520508-0.0576172,1.1669922-0.1738281c0.3144531-0.1162109,0.6040039-0.2558594,0.8691406-0.421875
		L21.8125,38.8046875c-0.265625,0.1660156-0.5961914,0.3066406-0.9936523,0.421875
		c-0.3974609,0.1162109-0.828125,0.1738281-1.2915039,0.1738281c-1.7553711,0-2.9301758-0.7275391-3.5263672-2.1855469
		c-0.5961914-1.4560547-0.894043-3.4921875-0.894043-6.109375V15.7084961h-3.4770508v-0.7949219h3.4770508v-4.8178711
		L16.1499023,9.7480469z"/>
	<path fill="#FFFFFF" d="M27.7924805,9.3007812c0,0.894043-0.0332031,1.6230469-0.0991211,2.1855469
		c-0.0668945,0.5634766-0.190918,1.0429688-0.3725586,1.4404297c-0.1826172,0.3974609-0.4145508,0.7202148-0.6953125,0.96875
		c-0.2817383,0.2485352-0.6381836,0.4887695-1.0683594,0.7202148v-0.9936523
		c0.4970703-0.3305664,0.8276367-0.8193359,0.9936523-1.4648438c0.1655273-0.6459961,0.2485352-1.5976562,0.2485352-2.8564453
		V3.4399414h0.9931641V9.3007812z"/>
	<path fill="#FFFFFF" d="M43.3432617,32.7451172c0,1.9873047-0.6455078,3.5927734-1.9370117,4.8173828
		c-1.2915039,1.2265625-3.0629883,1.8378906-5.3144531,1.8378906c-0.9609375,0-1.8798828-0.1230469-2.7568359-0.3720703
		c-0.8779297-0.2480469-1.6474609-0.6201172-2.3095703-1.1171875l0.3974609-0.7949219
		c0.5625,0.4638672,1.2744141,0.8193359,2.1357422,1.0673828c0.8603516,0.2490234,1.7050781,0.3730469,2.5332031,0.3730469
		c1.9199219,0,3.4350586-0.5380859,4.5444336-1.6142578c1.109375-1.0751953,1.6640625-2.4580078,1.6640625-4.1474609
		c0-0.7949219-0.0991211-1.4726562-0.2978516-2.0371094c-0.1987305-0.5625-0.5053711-1.0751953-0.9189453-1.5390625
		c-0.4145508-0.4628906-0.9360352-0.8945312-1.5644531-1.2910156c-0.6293945-0.3974609-1.3745117-0.7954102-2.2353516-1.1923828
		c-1.7553711-0.7949219-3.1293945-1.671875-4.1225586-2.6328125c-0.9931641-0.9599609-1.4902344-2.2348633-1.4902344-3.824707
		c0-1.887207,0.5791016-3.3354492,1.7387695-4.3457031c1.1586914-1.0097656,2.7314453-1.5151367,4.7182617-1.5151367
		c0.9267578,0,1.7548828,0.1079102,2.4838867,0.3227539c0.7280273,0.2158203,1.3408203,0.5053711,1.8374023,0.8691406
		l-0.3476562,0.7949219c-0.4306641-0.3305664-0.9770508-0.6040039-1.6391602-0.8193359
		c-0.6625977-0.215332-1.4736328-0.3232422-2.4335938-0.3232422c-0.7290039,0-1.4155273,0.0917969-2.0615234,0.2734375
		c-0.6455078,0.1821289-1.2089844,0.4716797-1.6884766,0.8691406c-0.4804688,0.3974609-0.8613281,0.9111328-1.1425781,1.5395508
		c-0.2817383,0.6293945-0.4223633,1.3745117-0.4223633,2.2353516c0,1.4243164,0.4472656,2.5415039,1.3413086,3.3525391
		c0.894043,0.8120117,2.1357422,1.5981445,3.7250977,2.359375c0.9267578,0.4643555,1.7387695,0.902832,2.434082,1.3164062
		c0.6953125,0.4150391,1.2744141,0.8867188,1.7382812,1.4160156c0.4633789,0.5292969,0.8110352,1.125,1.0429688,1.7871094
		C43.2270508,31.0742188,43.3432617,31.8515625,43.3432617,32.7451172z"/>
	<path fill="#FFFFFF" d="M62.515625,5.4267578l10.9770508,17.8813477c1.456543,2.3515625,2.8720703,4.668457,4.246582,6.9536133
		c1.3735352,2.2851562,2.7568359,4.5703125,4.1474609,6.8544922h0.0996094
		c-0.0336914-2.6494141-0.0498047-5.2646484-0.0498047-7.8476562s0-5.2158203,0-7.8979492V5.4267578h1.0429688v33.4775391
		h-1.1425781L70.9594727,21.2714844c-1.4902344-2.3842773-2.9306641-4.7514648-4.3212891-7.1030273
		c-1.3911133-2.3505859-2.8149414-4.7182617-4.2719727-7.1025391h-0.0991211
		c0.0327148,2.6494141,0.0498047,5.2822266,0.0498047,7.8974609c0,2.6162109,0,5.2822266,0,7.9970703v15.9438477h-1.0429688
		V5.4267578H62.515625z"/>
	<path fill="#FFFFFF" d="M109.4238281,26.6855469c0,2.2519531-0.3149414,4.1806641-0.9438477,5.7871094
		c-0.6293945,1.6054688-1.4487305,2.9296875-2.4584961,3.9726562c-1.0107422,1.0429688-2.152832,1.8056641-3.4272461,2.2851562
		c-1.2753906,0.4794922-2.5415039,0.7207031-3.7998047,0.7207031c-1.4575195,0-2.8149414-0.2822266-4.0727539-0.8447266
		c-1.2587891-0.5634766-2.3432617-1.3818359-3.253418-2.4589844c-0.9111328-1.0751953-1.6313477-2.3759766-2.1606445-3.8994141
		c-0.5302734-1.5224609-0.7949219-3.2441406-0.7949219-5.1650391c0-2.0195312,0.28125-3.8164062,0.8442383-5.3891602
		s1.3242188-2.8974609,2.2851562-3.9736328c0.9599609-1.0756836,2.0776367-1.8955078,3.3525391-2.4589844
		c1.2744141-0.5625,2.6401367-0.8442383,4.0976562-0.8442383c1.5229492,0,2.9223633,0.2978516,4.1972656,0.894043
		c1.2744141,0.5961914,2.3671875,1.4243164,3.2783203,2.4833984c0.9101562,1.0600586,1.6142578,2.3515625,2.1108398,3.8745117
		C109.175293,23.1923828,109.4238281,24.8647461,109.4238281,26.6855469z M108.3310547,26.6855469
		c0-1.6552734-0.2158203-3.1787109-0.6455078-4.5698242c-0.4306641-1.390625-1.0517578-2.5991211-1.862793-3.6259766
		c-0.8120117-1.0258789-1.7880859-1.8203125-2.9306641-2.3837891c-1.1420898-0.5629883-2.4086914-0.8447266-3.7998047-0.8447266
		c-1.3579102,0-2.6162109,0.2734375-3.7749023,0.8198242c-1.1591797,0.5463867-2.1606445,1.324707-3.0048828,2.3344727
		c-0.8442383,1.0102539-1.5073242,2.2519531-1.9868164,3.7250977c-0.4804688,1.4736328-0.7202148,3.121582-0.7202148,4.9423828
		c0,1.7548828,0.2397461,3.3447266,0.7202148,4.7685547c0.4794922,1.4238281,1.1337891,2.6328125,1.9619141,3.625
		c0.8276367,0.9941406,1.8129883,1.7636719,2.9555664,2.3105469c1.1420898,0.5458984,2.3916016,0.8193359,3.75,0.8193359
		c1.1254883,0,2.2426758-0.2392578,3.3525391-0.7197266c1.109375-0.4804688,2.1113281-1.2089844,3.0053711-2.1855469
		S106.965332,33.4902344,107.5117188,32S108.3310547,28.7392578,108.3310547,26.6855469z"/>
	<path fill="#FFFFFF" d="M116.203125,9.7480469v5.1655273h5.9106445v0.7949219h-5.9106445v15.3969727
		c0,1.1933594,0.0498047,2.2441406,0.1489258,3.1542969c0.0996094,0.9121094,0.28125,1.6816406,0.5463867,2.3105469
		c0.2646484,0.6289062,0.6210938,1.109375,1.0678711,1.4394531c0.4472656,0.3320312,1.034668,0.4970703,1.7636719,0.4970703
		c0.4628906,0,0.8520508-0.0576172,1.1669922-0.1738281c0.3144531-0.1162109,0.6040039-0.2558594,0.8691406-0.421875
		l0.0996094,0.8935547c-0.265625,0.1660156-0.5961914,0.3066406-0.9936523,0.421875
		c-0.3974609,0.1162109-0.828125,0.1738281-1.2915039,0.1738281c-1.7553711,0-2.9301758-0.7275391-3.5263672-2.1855469
		c-0.5961914-1.4560547-0.894043-3.4921875-0.894043-6.109375V15.7084961h-3.4770508v-0.7949219h3.4770508v-4.8178711
		L116.203125,9.7480469z"/>
	<path fill="#FFFFFF" d="M146.7993164,5.4267578v22.6992188c0,2.1855469-0.1821289,4.0068359-0.5463867,5.4638672
		c-0.3647461,1.4570312-0.8530273,2.6162109-1.465332,3.4765625c-0.612793,0.8613281-1.3408203,1.4746094-2.1855469,1.8378906
		c-0.8442383,0.3632812-1.746582,0.546875-2.706543,0.546875c-0.7949219,0-1.5732422-0.0751953-2.3349609-0.2246094
		c-0.7617188-0.1484375-1.390625-0.3222656-1.887207-0.5214844l0.2485352-0.84375
		c0.496582,0.1660156,1.0839844,0.3222656,1.7631836,0.4716797c0.6782227,0.1494141,1.3984375,0.2236328,2.1606445,0.2236328
		c0.8271484,0,1.6054688-0.1660156,2.3344727-0.4960938c0.7280273-0.3310547,1.3574219-0.9023438,1.887207-1.7148438
		c0.5292969-0.8105469,0.9438477-1.8867188,1.2416992-3.2285156c0.2983398-1.3398438,0.4472656-3.0214844,0.4472656-5.0410156
		V5.4267578H146.7993164z"/>
	<path fill="#FFFFFF" d="M153.4243164,14.9135742h1.043457v13.7094727c0,1.8867188,0.1816406,3.4599609,0.5463867,4.71875
		c0.3637695,1.2578125,0.8603516,2.2763672,1.4897461,3.0546875c0.6289062,0.7773438,1.3574219,1.3330078,2.1855469,1.6640625
		c0.8276367,0.3300781,1.7216797,0.4960938,2.6821289,0.4960938c0.9936523,0,1.9038086-0.1894531,2.7319336-0.5712891
		c0.8276367-0.3798828,1.5478516-0.8603516,2.1606445-1.4404297c0.6123047-0.5791016,1.1254883-1.2246094,1.5400391-1.9375
		c0.4135742-0.7109375,0.7202148-1.4150391,0.9189453-2.1103516c0.1982422-0.6962891,0.3227539-1.3164062,0.3720703-1.8623047
		c0.0498047-0.546875,0.074707-1.3662109,0.074707-2.4589844v-13.262207h1.0429688v15.496582
		c0,0.6640625,0.0078125,1.390625,0.0249023,2.1855469c0.0161133,0.7949219,0.0327148,1.5742188,0.0498047,2.3349609
		c0.0161133,0.7626953,0.0327148,1.4902344,0.0498047,2.1855469c0.0161133,0.6953125,0.0410156,1.2919922,0.0742188,1.7880859
		h-0.9438477l-0.1987305-5.1162109h-0.0991211c-0.828125,1.7216797-1.8798828,3.0888672-3.1538086,4.0986328
		c-1.2753906,1.0097656-2.8564453,1.5136719-4.7436523,1.5136719c-1.390625,0-2.5830078-0.2558594-3.5761719-0.7695312
		c-0.9936523-0.5126953-1.8051758-1.2324219-2.434082-2.1601562c-0.6293945-0.9267578-1.0927734-2.0527344-1.390625-3.3779297
		c-0.2978516-1.3232422-0.4472656-2.7978516-0.4472656-4.4208984V14.9135742z"/>
	<path fill="#FFFFFF" d="M187.6015625,32.7451172c0,1.9873047-0.6455078,3.5927734-1.9370117,4.8173828
		c-1.2915039,1.2265625-3.0629883,1.8378906-5.3144531,1.8378906c-0.9609375,0-1.8798828-0.1230469-2.7568359-0.3720703
		c-0.8779297-0.2480469-1.6474609-0.6201172-2.3095703-1.1171875l0.3974609-0.7949219
		c0.5625,0.4638672,1.2744141,0.8193359,2.1357422,1.0673828c0.8603516,0.2490234,1.7050781,0.3730469,2.5332031,0.3730469
		c1.9199219,0,3.4350586-0.5380859,4.5444336-1.6142578c1.109375-1.0751953,1.6640625-2.4580078,1.6640625-4.1474609
		c0-0.7949219-0.0991211-1.4726562-0.2978516-2.0371094c-0.1987305-0.5625-0.5053711-1.0751953-0.9189453-1.5390625
		c-0.4145508-0.4628906-0.9360352-0.8945312-1.5644531-1.2910156c-0.6293945-0.3974609-1.3745117-0.7954102-2.2353516-1.1923828
		c-1.7553711-0.7949219-3.1293945-1.671875-4.1225586-2.6328125c-0.9931641-0.9599609-1.4902344-2.2348633-1.4902344-3.824707
		c0-1.887207,0.5791016-3.3354492,1.7387695-4.3457031c1.1586914-1.0097656,2.7314453-1.5151367,4.7182617-1.5151367
		c0.9267578,0,1.7548828,0.1079102,2.4838867,0.3227539c0.7280273,0.2158203,1.3408203,0.5053711,1.8374023,0.8691406
		l-0.3476562,0.7949219c-0.4306641-0.3305664-0.9770508-0.6040039-1.6391602-0.8193359
		c-0.6625977-0.215332-1.4736328-0.3232422-2.4335938-0.3232422c-0.7290039,0-1.4155273,0.0917969-2.0615234,0.2734375
		c-0.6455078,0.1821289-1.2089844,0.4716797-1.6884766,0.8691406c-0.4804688,0.3974609-0.8613281,0.9111328-1.1425781,1.5395508
		c-0.2817383,0.6293945-0.4223633,1.3745117-0.4223633,2.2353516c0,1.4243164,0.4472656,2.5415039,1.3413086,3.3525391
		c0.894043,0.8120117,2.1357422,1.5981445,3.7250977,2.359375c0.9267578,0.4643555,1.7387695,0.902832,2.434082,1.3164062
		c0.6953125,0.4150391,1.2744141,0.8867188,1.7382812,1.4160156c0.4633789,0.5292969,0.8110352,1.125,1.0429688,1.7871094
		C187.4853516,31.0742188,187.6015625,31.8515625,187.6015625,32.7451172z"/>
	<path fill="#FFFFFF" d="M195.1660156,9.7480469v5.1655273h5.9111328v0.7949219h-5.9111328v15.3969727
		c0,1.1933594,0.0498047,2.2441406,0.1489258,3.1542969c0.0996094,0.9121094,0.28125,1.6816406,0.5463867,2.3105469
		c0.2646484,0.6289062,0.6210938,1.109375,1.0678711,1.4394531c0.4472656,0.3320312,1.034668,0.4970703,1.7636719,0.4970703
		c0.4628906,0,0.8520508-0.0576172,1.1669922-0.1738281c0.3144531-0.1162109,0.6040039-0.2558594,0.8696289-0.421875
		l0.0996094,0.8935547c-0.265625,0.1660156-0.5966797,0.3066406-0.9941406,0.421875
		c-0.3974609,0.1162109-0.828125,0.1738281-1.2915039,0.1738281c-1.7553711,0-2.9301758-0.7275391-3.5263672-2.1855469
		c-0.5961914-1.4560547-0.894043-3.4921875-0.894043-6.109375V15.7084961h-3.4770508v-0.7949219h3.4770508v-4.8178711
		L195.1660156,9.7480469z"/>
	<path fill="#FFFFFF" d="M230.9775391,38.9042969c-0.0664062-0.5625-0.1162109-1.2089844-0.1484375-1.9375
		c-0.0332031-0.7275391-0.0507812-1.4726562-0.0507812-2.234375h-0.1484375
		c-0.7617188,1.2578125-1.7714844,2.359375-3.0292969,3.3027344c-1.2597656,0.9433594-2.8320312,1.4160156-4.71875,1.4160156
		c-1.0605469,0-2.0117188-0.1660156-2.8564453-0.4970703s-1.5644531-0.7861328-2.1611328-1.3662109
		c-0.5957031-0.578125-1.0595703-1.25-1.390625-2.0117188s-0.4960938-1.5898438-0.4960938-2.4833984
		c0-1.3232422,0.3300781-2.4990234,0.9931641-3.5263672c0.6621094-1.0253906,1.6298828-1.8955078,2.9052734-2.6079102
		c1.2753906-0.7114258,2.8144531-1.2578125,4.6191406-1.6391602c1.8046875-0.3798828,3.8496094-0.5708008,6.1347656-0.5708008
		v-0.6459961c0-1.0258789-0.0830078-2.0688477-0.2480469-3.1289062c-0.1660156-1.0595703-0.4892578-2.0117188-0.96875-2.8564453
		c-0.4804688-0.8442383-1.1347656-1.53125-1.9619141-2.0610352c-0.828125-0.5292969-1.9052734-0.7949219-3.2285156-0.7949219
		c-0.9609375,0-1.9794922,0.1577148-3.0546875,0.472168c-1.0771484,0.3149414-1.9951172,0.7695312-2.7568359,1.3657227
		l-0.3476562-0.8442383c0.7617188-0.5629883,1.7304688-1.0097656,2.90625-1.3413086
		c1.1738281-0.3305664,2.2753906-0.496582,3.3027344-0.496582c1.5224609,0,2.7558594,0.2817383,3.7001953,0.8442383
		c0.9443359,0.5634766,1.6884766,1.3085938,2.2353516,2.2353516c0.5458984,0.9272461,0.9179688,1.9790039,1.1171875,3.1538086
		c0.1992188,1.1757812,0.2988281,2.359375,0.2988281,3.5517578v6.3076172c0,0.6630859,0.0078125,1.4335938,0.0234375,2.3105469
		c0.0175781,0.8769531,0.0419922,1.7304688,0.0751953,2.5576172c0.0322266,0.828125,0.0654297,1.5644531,0.0996094,2.2099609
		c0.0322266,0.6464844,0.0820312,1.0849609,0.1494141,1.3164062H230.9775391z M230.6298828,25.5927734
		c-2.0537109,0-3.9160156,0.1577148-5.5878906,0.4716797c-1.671875,0.3154297-3.0966797,0.7871094-4.2714844,1.4150391
		c-1.1757812,0.6298828-2.0859375,1.3994141-2.7324219,2.3105469c-0.6445312,0.9111328-0.96875,1.9794922-0.96875,3.2041016
		c0,0.8935547,0.1582031,1.6875,0.4726562,2.3837891c0.3144531,0.6953125,0.7363281,1.2841797,1.2666016,1.7626953
		c0.5292969,0.4804688,1.1591797,0.8447266,1.8876953,1.09375c0.7275391,0.2480469,1.4902344,0.3720703,2.2851562,0.3720703
		c1.390625,0,2.6396484-0.3388672,3.75-1.0185547c1.1083984-0.6777344,2.09375-1.6308594,2.9550781-2.8554688
		c0.4296875-0.5966797,0.6953125-1.25,0.7949219-1.9628906c0.0986328-0.7109375,0.1484375-1.5966797,0.1484375-2.65625V25.5927734z"
		/>
	<path fill="#FFFFFF" d="M268.2792969,6.3706055h-10.1816406v32.5336914h-1.0429688V6.3706055h-10.0830078V5.4267578h21.3076172
		V6.3706055z"/>
	<path fill="#FFFFFF" d="M283.8349609,37.9111328c-0.6621094,0.2978516-1.5566406,0.6201172-2.6816406,0.9677734
		c-1.1259766,0.3476562-2.5830078,0.5214844-4.3710938,0.5214844c-3.3447266,0-5.9355469-1.1083984-7.7734375-3.3271484
		c-1.8378906-2.2177734-2.7568359-5.4140625-2.7568359-9.5864258c0-1.5893555,0.2314453-3.1123047,0.6953125-4.5698242
		c0.4638672-1.456543,1.1337891-2.7392578,2.0117188-3.8491211c0.8769531-1.109375,1.9375-1.9946289,3.1787109-2.6577148
		c1.2421875-0.6616211,2.640625-0.9931641,4.1972656-0.9931641c1.7880859,0,3.2539062,0.3398438,4.3955078,1.0180664
		c1.1425781,0.6791992,2.0371094,1.5234375,2.6826172,2.5332031c0.6455078,1.0107422,1.0927734,2.0947266,1.3408203,3.253418
		c0.2490234,1.159668,0.3730469,2.2026367,0.3730469,3.1293945c0,0.3974609,0,0.762207,0,1.0927734
		c0,0.3310547-0.0341797,0.6625977-0.0996094,0.9931641h-17.6826172c0,1.7875977,0.1904297,3.4194336,0.5712891,4.8930664
		c0.3798828,1.4726562,0.9511719,2.7480469,1.7138672,3.8242188c0.7607422,1.0761719,1.7382812,1.9121094,2.9306641,2.5078125
		c1.1914062,0.5966797,2.6152344,0.8945312,4.2714844,0.8945312c1.6552734,0,3.0292969-0.15625,4.1220703-0.4716797
		c1.0927734-0.3144531,1.9873047-0.6376953,2.6826172-0.96875L283.8349609,37.9111328z M284.0839844,25.5927734
		c0.0322266-0.1987305,0.0488281-0.4301758,0.0488281-0.6953125c0-0.2646484,0-0.5463867,0-0.8447266
		c0-0.8271484-0.1162109-1.7543945-0.3476562-2.78125c-0.2314453-1.0258789-0.6455078-1.9868164-1.2412109-2.8808594
		c-0.5966797-0.894043-1.3994141-1.6391602-2.4091797-2.2353516c-1.0107422-0.5957031-2.2929688-0.894043-3.8496094-0.894043
		c-1.2910156,0-2.4667969,0.265625-3.5263672,0.7949219c-1.0605469,0.5297852-1.9707031,1.2587891-2.7314453,2.1855469
		c-0.7626953,0.9272461-1.3662109,2.0200195-1.8134766,3.2783203c-0.4472656,1.2587891-0.7197266,2.6162109-0.8193359,4.0727539
		H284.0839844z"/>
	<path fill="#FFFFFF" d="M320.9941406,38.9042969h-1.0439453v-15.546875c0-1.1586914-0.1484375-2.2348633-0.4462891-3.2285156
		c-0.2978516-0.9931641-0.7207031-1.8452148-1.2666016-2.5581055c-0.546875-0.7114258-1.234375-1.2739258-2.0615234-1.6884766
		c-0.828125-0.4135742-1.7558594-0.6210938-2.78125-0.6210938c-0.9277344,0-1.7724609,0.1826172-2.5332031,0.5463867
		c-0.7626953,0.3647461-1.4248047,0.8447266-1.9873047,1.4404297c-0.5634766,0.5961914-1.0429688,1.2504883-1.4404297,1.9619141
		c-0.3974609,0.7124023-0.6953125,1.4160156-0.8935547,2.1113281c-0.1660156,0.496582-0.265625,1.0678711-0.2978516,1.7133789
		c-0.0341797,0.6459961-0.0498047,1.5151367-0.0498047,2.6079102v13.2617188h-1.0429688v-16.043457
		c0-0.8608398-0.1494141-1.7460938-0.4472656-2.6572266c-0.2978516-0.9106445-0.7207031-1.7299805-1.2666016-2.4584961
		c-0.546875-0.7280273-1.2089844-1.3242188-1.9873047-1.7885742c-0.7783203-0.4628906-1.6640625-0.6953125-2.6572266-0.6953125
		s-1.8710938,0.1826172-2.6318359,0.5463867c-0.7626953,0.3647461-1.4326172,0.8447266-2.0117188,1.4404297
		c-0.5800781,0.5961914-1.0605469,1.2504883-1.4404297,1.9619141c-0.3818359,0.7124023-0.6708984,1.4160156-0.8691406,2.1113281
		c-0.0996094,0.3310547-0.1826172,0.6376953-0.2490234,0.9189453c-0.0664062,0.2817383-0.1074219,0.5878906-0.1240234,0.918457
		c-0.0166016,0.331543-0.0332031,0.6958008-0.0498047,1.0927734c-0.0166016,0.3974609-0.0244141,0.8618164-0.0244141,1.3911133
		v13.2617188h-1.0429688V23.4072266c0-0.6621094-0.0087891-1.3823242-0.0253906-2.1606445
		c-0.0166016-0.777832-0.0332031-1.5561523-0.0498047-2.3344727c-0.0166016-0.777832-0.0332031-1.5151367-0.0488281-2.2104492
		c-0.0175781-0.6953125-0.0419922-1.2915039-0.0751953-1.7880859h0.9443359l0.1982422,5.1162109h0.0996094
		c0.8271484-1.7216797,1.8125-3.0874023,2.9550781-4.0976562c1.1425781-1.0097656,2.6572266-1.5151367,4.5449219-1.5151367
		c1.6884766,0,3.1542969,0.5546875,4.3955078,1.6640625c1.2421875,1.1098633,2.09375,2.5581055,2.5585938,4.3461914h0.0986328
		c0.7617188-1.9536133,1.7714844-3.4438477,3.0302734-4.4707031c1.2578125-1.0258789,2.8310547-1.5395508,4.71875-1.5395508
		c1.0253906,0,1.9863281,0.1987305,2.8808594,0.5961914c0.8935547,0.3969727,1.6640625,0.9521484,2.3095703,1.6635742
		c0.6455078,0.7128906,1.1582031,1.5898438,1.5400391,2.6328125c0.3798828,1.0429688,0.5712891,2.2104492,0.5712891,3.5014648
		V38.9042969z"/>
	<path fill="#FFFFFF" d="M347.0898438,26.5859375c0,2.0537109-0.2480469,3.8828125-0.7441406,5.4882812
		c-0.4970703,1.6074219-1.2011719,2.9560547-2.1113281,4.0488281c-0.9111328,1.0917969-1.9951172,1.9199219-3.2539062,2.4833984
		c-1.2587891,0.5625-2.6318359,0.8447266-4.1220703,0.8447266c-0.7285156,0-1.4736328-0.0751953-2.2353516-0.2246094
		c-0.7617188-0.1484375-1.4902344-0.3964844-2.1855469-0.7441406s-1.3330078-0.8027344-1.9121094-1.3662109
		c-0.5800781-0.5625-1.0683594-1.2412109-1.4648438-2.0361328h-0.0996094v13.6582031h-1.0429688V21.8178711
		c0-1.3574219-0.0175781-2.6240234-0.0498047-3.7998047c-0.0332031-1.1748047-0.0830078-2.2104492-0.1494141-3.1044922h0.9443359
		l0.1982422,4.9672852h0.0996094c0.3642578-0.7280273,0.8271484-1.4233398,1.390625-2.0864258
		c0.5625-0.6621094,1.2080078-1.2416992,1.9375-1.7382812c0.7275391-0.496582,1.5146484-0.894043,2.359375-1.1918945
		c0.84375-0.2983398,1.7294922-0.4472656,2.6572266-0.4472656c1.4228516,0,2.7314453,0.2900391,3.9238281,0.8691406
		c1.1914062,0.5795898,2.2265625,1.3994141,3.1044922,2.4589844c0.8769531,1.0600586,1.5556641,2.3427734,2.0361328,3.8491211
		C346.8496094,23.1015625,347.0898438,24.765625,347.0898438,26.5859375z M345.9970703,26.5859375
		c0-1.6884766-0.2070312-3.2285156-0.6201172-4.6191406c-0.4150391-1.390625-1.0107422-2.5830078-1.7880859-3.5761719
		c-0.7783203-0.9936523-1.7138672-1.7631836-2.8066406-2.3095703s-2.3017578-0.8198242-3.6259766-0.8198242
		c-1.2255859,0-2.3427734,0.265625-3.3525391,0.7949219c-1.0107422,0.5297852-1.8710938,1.184082-2.5830078,1.9619141
		c-0.7128906,0.7783203-1.2666016,1.6230469-1.6640625,2.5332031c-0.3974609,0.9111328-0.5957031,1.7470703-0.5957031,2.5083008
		v8.2949219c0,1.0927734,0.2060547,2.0859375,0.6210938,2.9794922c0.4130859,0.8945312,0.9755859,1.65625,1.6884766,2.2851562
		c0.7119141,0.6298828,1.53125,1.1171875,2.4589844,1.4658203c0.9257812,0.3476562,1.9033203,0.5214844,2.9296875,0.5214844
		c2.8144531,0,5.0742188-1.0439453,6.7802734-3.1298828C345.1445312,33.390625,345.9970703,30.4277344,345.9970703,26.5859375z"/>
	<path fill="#FFFFFF" d="M353.8095703,38.9042969h-1.0429688V3.6884766h1.0429688V38.9042969z"/>
	<path fill="#FFFFFF" d="M373.7216797,38.9042969c-0.0664062-0.5625-0.1162109-1.2089844-0.1484375-1.9375
		c-0.0341797-0.7275391-0.0498047-1.4726562-0.0498047-2.234375h-0.1494141
		c-0.7617188,1.2578125-1.7714844,2.359375-3.0302734,3.3027344s-2.8310547,1.4160156-4.7177734,1.4160156
		c-1.0605469,0-2.0117188-0.1660156-2.8564453-0.4970703s-1.5644531-0.7861328-2.1601562-1.3662109
		c-0.5966797-0.578125-1.0605469-1.25-1.3916016-2.0117188s-0.4960938-1.5898438-0.4960938-2.4833984
		c0-1.3232422,0.3300781-2.4990234,0.9931641-3.5263672c0.6621094-1.0253906,1.6308594-1.8955078,2.9052734-2.6079102
		c1.2744141-0.7114258,2.8144531-1.2578125,4.6201172-1.6391602c1.8037109-0.3798828,3.8486328-0.5708008,6.1337891-0.5708008
		v-0.6459961c0-1.0258789-0.0830078-2.0688477-0.2480469-3.1289062c-0.1660156-1.0595703-0.4892578-2.0117188-0.96875-2.8564453
		c-0.4804688-0.8442383-1.1347656-1.53125-1.9619141-2.0610352c-0.828125-0.5292969-1.9042969-0.7949219-3.2285156-0.7949219
		c-0.9609375,0-1.9794922,0.1577148-3.0546875,0.472168c-1.0761719,0.3149414-1.9951172,0.7695312-2.7568359,1.3657227
		l-0.3476562-0.8442383c0.7617188-0.5629883,1.7294922-1.0097656,2.9052734-1.3413086
		c1.1757812-0.3305664,2.2763672-0.496582,3.3037109-0.496582c1.5224609,0,2.7568359,0.2817383,3.7001953,0.8442383
		c0.9433594,0.5634766,1.6884766,1.3085938,2.2353516,2.2353516c0.5458984,0.9272461,0.9189453,1.9790039,1.1171875,3.1538086
		c0.1992188,1.1757812,0.2978516,2.359375,0.2978516,3.5517578v6.3076172c0,0.6630859,0.0078125,1.4335938,0.0253906,2.3105469
		c0.015625,0.8769531,0.0410156,1.7304688,0.0742188,2.5576172c0.0322266,0.828125,0.0664062,1.5644531,0.0996094,2.2099609
		c0.0322266,0.6464844,0.0820312,1.0849609,0.1484375,1.3164062H373.7216797z M373.3740234,25.5927734
		c-2.0537109,0-3.9160156,0.1577148-5.5878906,0.4716797c-1.6728516,0.3154297-3.0966797,0.7871094-4.2714844,1.4150391
		c-1.1757812,0.6298828-2.0859375,1.3994141-2.7314453,2.3105469c-0.6464844,0.9111328-0.96875,1.9794922-0.96875,3.2041016
		c0,0.8935547,0.15625,1.6875,0.4716797,2.3837891c0.3144531,0.6953125,0.7363281,1.2841797,1.2666016,1.7626953
		c0.5292969,0.4804688,1.1582031,0.8447266,1.8876953,1.09375c0.7275391,0.2480469,1.4902344,0.3720703,2.2841797,0.3720703
		c1.390625,0,2.640625-0.3388672,3.75-1.0185547c1.109375-0.6777344,2.0947266-1.6308594,2.9560547-2.8554688
		c0.4296875-0.5966797,0.6953125-1.25,0.7939453-1.9628906c0.0996094-0.7109375,0.1494141-1.5966797,0.1494141-2.65625V25.5927734z"
		/>
	<path fill="#FFFFFF" d="M382.6328125,9.7480469v5.1655273h5.9101562v0.7949219h-5.9101562v15.3969727
		c0,1.1933594,0.0488281,2.2441406,0.1484375,3.1542969c0.0996094,0.9121094,0.28125,1.6816406,0.546875,2.3105469
		c0.2646484,0.6289062,0.6201172,1.109375,1.0673828,1.4394531c0.4472656,0.3320312,1.0351562,0.4970703,1.7636719,0.4970703
		c0.4628906,0,0.8515625-0.0576172,1.1669922-0.1738281c0.3144531-0.1162109,0.6035156-0.2558594,0.8691406-0.421875
		l0.0996094,0.8935547c-0.265625,0.1660156-0.5966797,0.3066406-0.9931641,0.421875
		c-0.3974609,0.1162109-0.828125,0.1738281-1.2919922,0.1738281c-1.7548828,0-2.9306641-0.7275391-3.5263672-2.1855469
		c-0.5957031-1.4560547-0.8945312-3.4921875-0.8945312-6.109375V15.7084961h-3.4765625v-0.7949219h3.4765625v-4.8178711
		L382.6328125,9.7480469z"/>
	<path fill="#FFFFFF" d="M407.7998047,37.9111328c-0.6621094,0.2978516-1.5566406,0.6201172-2.6816406,0.9677734
		c-1.1259766,0.3476562-2.5830078,0.5214844-4.3710938,0.5214844c-3.3447266,0-5.9355469-1.1083984-7.7734375-3.3271484
		c-1.8378906-2.2177734-2.7568359-5.4140625-2.7568359-9.5864258c0-1.5893555,0.2314453-3.1123047,0.6953125-4.5698242
		c0.4638672-1.456543,1.1337891-2.7392578,2.0117188-3.8491211c0.8769531-1.109375,1.9375-1.9946289,3.1787109-2.6577148
		c1.2421875-0.6616211,2.640625-0.9931641,4.1972656-0.9931641c1.7880859,0,3.2539062,0.3398438,4.3955078,1.0180664
		c1.1425781,0.6791992,2.0371094,1.5234375,2.6826172,2.5332031c0.6455078,1.0107422,1.0927734,2.0947266,1.3408203,3.253418
		c0.2490234,1.159668,0.3730469,2.2026367,0.3730469,3.1293945c0,0.3974609,0,0.762207,0,1.0927734
		c0,0.3310547-0.0341797,0.6625977-0.0996094,0.9931641h-17.6826172c0,1.7875977,0.1904297,3.4194336,0.5712891,4.8930664
		c0.3798828,1.4726562,0.9511719,2.7480469,1.7138672,3.8242188c0.7607422,1.0761719,1.7382812,1.9121094,2.9306641,2.5078125
		c1.1914062,0.5966797,2.6152344,0.8945312,4.2714844,0.8945312c1.6552734,0,3.0292969-0.15625,4.1220703-0.4716797
		c1.0927734-0.3144531,1.9873047-0.6376953,2.6826172-0.96875L407.7998047,37.9111328z M408.0488281,25.5927734
		c0.0322266-0.1987305,0.0488281-0.4301758,0.0488281-0.6953125c0-0.2646484,0-0.5463867,0-0.8447266
		c0-0.8271484-0.1162109-1.7543945-0.3476562-2.78125c-0.2314453-1.0258789-0.6455078-1.9868164-1.2412109-2.8808594
		c-0.5966797-0.894043-1.3994141-1.6391602-2.4091797-2.2353516c-1.0107422-0.5957031-2.2929688-0.894043-3.8496094-0.894043
		c-1.2910156,0-2.4667969,0.265625-3.5263672,0.7949219c-1.0605469,0.5297852-1.9707031,1.2587891-2.7314453,2.1855469
		c-0.7626953,0.9272461-1.3662109,2.0200195-1.8134766,3.2783203c-0.4472656,1.2587891-0.7197266,2.6162109-0.8193359,4.0727539
		H408.0488281z"/>
	<path fill="#FFFFFF" d="M414.6591797,37.9609375c0,0.828125-0.3974609,1.2412109-1.1914062,1.2412109
		c-0.3652344,0-0.6542969-0.1162109-0.8701172-0.3476562s-0.3222656-0.5292969-0.3222656-0.8935547
		s0.1064453-0.6708984,0.3222656-0.9199219c0.2158203-0.2480469,0.5048828-0.3720703,0.8701172-0.3720703
		c0.3632812,0,0.6533203,0.1240234,0.8691406,0.3720703C414.5517578,37.2900391,414.6591797,37.5966797,414.6591797,37.9609375z"/>
</g>
</svg>
