<?xml version="1.0" encoding="utf-8"?>
<!-- Generator: Adobe Illustrator 16.0.0, SVG Export Plug-In . SVG Version: 6.00 Build 0)  -->
<!DOCTYPE svg PUBLIC "-//W3C//DTD SVG 1.1//EN" "http://www.w3.org/Graphics/SVG/1.1/DTD/svg11.dtd">
<svg version="1.1" id="Layer_1" xmlns="http://www.w3.org/2000/svg" xmlns:xlink="http://www.w3.org/1999/xlink" x="0px" y="0px"
	 width="144.6665039px" height="48px" viewBox="0 0 144.6665039 48" enable-background="new 0 0 144.6665039 48"
	 xml:space="preserve">
<g>
	<g>
		<path fill="#808285" d="M41.2158203,12.9516602c0.4399414-0.0800781,1.0498047-0.1401367,1.8798828-0.1401367
			c0.8994141,0,1.5585938,0.1899414,1.9887695,0.550293c0.3999023,0.3295898,0.659668,0.859375,0.659668,1.4892578
			c0,0.6396484-0.199707,1.1694336-0.5800781,1.5297852c-0.4897461,0.4892578-1.2592773,0.7192383-2.1289062,0.7192383
			c-0.2299805,0-0.4394531-0.0102539-0.6000977-0.0405273v2.5390625h-1.2192383V12.9516602z M42.4350586,16.090332
			c0.1508789,0.0395508,0.3500977,0.0498047,0.6000977,0.0498047c0.9194336,0,1.4794922-0.449707,1.4794922-1.2397461
			c0-0.7490234-0.5195312-1.1489258-1.3696289-1.1489258c-0.3398438,0-0.5795898,0.0297852-0.7099609,0.0595703V16.090332z"/>
	</g>
	<g>
		<path fill="#808285" d="M51.296875,18.1391602c0,0.5800781,0.0195312,1.0600586,0.0400391,1.4594727h-1.0795898
			l-0.0600586-0.7397461h-0.0205078c-0.2094727,0.3496094-0.6894531,0.8500977-1.5585938,0.8500977
			c-0.8896484,0-1.6992188-0.5297852-1.6992188-2.1191406V14.730957h1.2290039v2.6489258
			c0,0.8095703,0.2607422,1.3295898,0.909668,1.3295898c0.4902344,0,0.8095703-0.3500977,0.9394531-0.6601562
			c0.0400391-0.1098633,0.0703125-0.2392578,0.0703125-0.3793945V14.730957h1.2294922V18.1391602z"/>
	</g>
	<g>
		<path fill="#808285" d="M52.8911133,16.3007812c0-0.6606445-0.0102539-1.1303711-0.0400391-1.5698242h1.0698242
			l0.0395508,0.9296875h0.0405273c0.2397461-0.6899414,0.8095703-1.0400391,1.3291016-1.0400391
			c0.1201172,0,0.1904297,0.0102539,0.2900391,0.0307617v1.1591797c-0.0996094-0.0195312-0.2099609-0.0400391-0.3598633-0.0400391
			c-0.5898438,0-0.9897461,0.3798828-1.0996094,0.9296875c-0.0195312,0.1103516-0.0400391,0.2397461-0.0400391,0.3798828v2.5185547
			h-1.2294922V16.3007812z"/>
	</g>
	<g>
		<path fill="#808285" d="M60.2890625,19.4492188c-0.2597656,0.1191406-0.7695312,0.2495117-1.3793945,0.2495117
			c-1.5195312,0-2.5087891-0.9692383-2.5087891-2.4785156c0-1.4599609,0.9995117-2.5996094,2.7089844-2.5996094
			c0.449707,0,0.9091797,0.1000977,1.1894531,0.2304688l-0.2202148,0.9194336
			c-0.2001953-0.090332-0.4897461-0.1899414-0.9291992-0.1899414c-0.9399414,0-1.5,0.6894531-1.4897461,1.5795898
			c0,0.9990234,0.6489258,1.5693359,1.4897461,1.5693359c0.4296875,0,0.7290039-0.090332,0.9692383-0.1904297L60.2890625,19.4492188
			z"/>
	</g>
	<g>
		<path fill="#808285" d="M61.4506836,12.5014648h1.2402344v2.8989258h0.0195312
			c0.1494141-0.2299805,0.3496094-0.4194336,0.6098633-0.5595703c0.2402344-0.1401367,0.5297852-0.2202148,0.8393555-0.2202148
			c0.8300781,0,1.699707,0.5498047,1.699707,2.109375v2.8686523h-1.2294922v-2.7285156
			c0-0.7094727-0.2607422-1.2397461-0.9399414-1.2397461c-0.4799805,0-0.8198242,0.3198242-0.949707,0.6899414
			c-0.0400391,0.0996094-0.0493164,0.2294922-0.0493164,0.3696289v2.9086914h-1.2402344V12.5014648z"/>
	</g>
	<g>
		<path fill="#808285" d="M70.1645508,19.5986328l-0.0795898-0.5395508h-0.0302734
			c-0.2998047,0.3798828-0.8095703,0.6499023-1.4394531,0.6499023c-0.9794922,0-1.5288086-0.7099609-1.5288086-1.4492188
			c0-1.2299805,1.0888672-1.8496094,2.8876953-1.8398438V16.340332c0-0.3198242-0.1293945-0.8496094-0.9887695-0.8496094
			c-0.4799805,0-0.9794922,0.1494141-1.3095703,0.3598633l-0.2397461-0.800293
			c0.3603516-0.2192383,0.9892578-0.4296875,1.7587891-0.4296875c1.5600586,0,2.0092773,0.9897461,2.0092773,2.0498047v1.7587891
			c0,0.4399414,0.0205078,0.8696289,0.0698242,1.1694336H70.1645508z M70.0048828,17.2202148
			c-0.8696289-0.0200195-1.6992188,0.1699219-1.6992188,0.9091797c0,0.4799805,0.3095703,0.7001953,0.699707,0.7001953
			c0.4897461,0,0.8491211-0.3203125,0.9594727-0.6704102c0.0297852-0.0898438,0.0400391-0.1899414,0.0400391-0.269043V17.2202148z"
			/>
	</g>
	<g>
		<path fill="#808285" d="M72.6806641,18.4692383c0.2797852,0.1699219,0.8100586,0.3500977,1.2495117,0.3500977
			c0.5395508,0,0.7802734-0.2202148,0.7802734-0.5400391c0-0.3300781-0.2001953-0.5-0.7998047-0.7094727
			c-0.9501953-0.3300781-1.3500977-0.8500977-1.3398438-1.4194336c0-0.859375,0.7099609-1.5297852,1.8393555-1.5297852
			c0.5395508,0,1.0097656,0.1401367,1.2890625,0.2900391l-0.2397461,0.8696289
			c-0.2099609-0.1196289-0.5996094-0.2797852-1.0292969-0.2797852c-0.4394531,0-0.6796875,0.2099609-0.6796875,0.5092773
			c0,0.3105469,0.2299805,0.4604492,0.8491211,0.6801758c0.8798828,0.3198242,1.2895508,0.7695312,1.2998047,1.4897461
			c0,0.8793945-0.6899414,1.519043-1.9790039,1.519043c-0.590332,0-1.1196289-0.1401367-1.4794922-0.3398438L72.6806641,18.4692383z
			"/>
	</g>
	<g>
		<path fill="#808285" d="M78.0791016,17.5097656c0.0297852,0.8798828,0.7192383,1.2592773,1.4995117,1.2592773
			c0.5698242,0,0.9794922-0.0795898,1.3496094-0.2197266l0.1796875,0.8500977c-0.4194336,0.1689453-1,0.2993164-1.6992188,0.2993164
			c-1.5791016,0-2.5087891-0.9692383-2.5087891-2.4589844c0-1.3491211,0.8193359-2.6191406,2.3793945-2.6191406
			c1.5786133,0,2.0991211,1.2998047,2.0991211,2.3691406c0,0.2304688-0.0205078,0.4101562-0.0405273,0.5200195H78.0791016z
			 M80.2182617,16.6499023c0.0097656-0.4492188-0.1899414-1.1894531-1.0097656-1.1894531
			c-0.7592773,0-1.0791016,0.6899414-1.1293945,1.1894531H80.2182617z"/>
	</g>
	<g>
		<path fill="#808285" d="M85.2539062,19.5986328v-3.9477539h-0.659668V14.730957h0.659668v-0.2104492
			c0-0.6293945,0.1694336-1.2587891,0.5893555-1.6586914c0.3598633-0.340332,0.8500977-0.4702148,1.2700195-0.4702148
			c0.3291016,0,0.5898438,0.0498047,0.7895508,0.1201172l-0.0898438,0.949707
			c-0.1298828-0.0498047-0.2998047-0.0898438-0.5200195-0.0898438c-0.609375,0-0.8193359,0.5092773-0.8193359,1.109375v0.25
			h1.0693359v0.9199219h-1.0595703v3.9477539H85.2539062z"/>
	</g>
	<g>
		<path fill="#808285" d="M88.6176758,16.3007812c0-0.6606445-0.0097656-1.1303711-0.0400391-1.5698242h1.0703125
			l0.0400391,0.9296875h0.0395508c0.2402344-0.6899414,0.809082-1.0400391,1.3295898-1.0400391
			c0.1196289,0,0.1894531,0.0102539,0.2895508,0.0307617v1.1591797c-0.1000977-0.0195312-0.2094727-0.0400391-0.359375-0.0400391
			c-0.5898438,0-0.9897461,0.3798828-1.0996094,0.9296875c-0.0200195,0.1103516-0.0400391,0.2397461-0.0400391,0.3798828v2.5185547
			h-1.2299805V16.3007812z"/>
	</g>
	<g>
		<path fill="#808285" d="M97.0849609,17.1201172c0,1.7895508-1.2592773,2.5888672-2.4985352,2.5888672
			c-1.3793945,0-2.4394531-0.949707-2.4394531-2.5087891c0-1.5996094,1.050293-2.5795898,2.519043-2.5795898
			C96.1157227,14.6206055,97.0849609,15.6401367,97.0849609,17.1201172z M93.4169922,17.1699219
			c0,0.9394531,0.4594727,1.6494141,1.2094727,1.6494141c0.6992188,0,1.1894531-0.6899414,1.1894531-1.6699219
			c0-0.7592773-0.340332-1.6289062-1.1796875-1.6289062C93.7666016,15.5205078,93.4169922,16.3603516,93.4169922,17.1699219z"/>
	</g>
	<g>
		<path fill="#808285" d="M98.3696289,16.1801758c0-0.5600586-0.0097656-1.0292969-0.0390625-1.4492188h1.059082
			l0.0498047,0.7197266h0.0302734c0.2402344-0.3798828,0.6796875-0.8300781,1.4990234-0.8300781
			c0.6396484,0,1.1391602,0.3603516,1.3491211,0.8999023h0.0200195c0.1704102-0.2700195,0.3701172-0.4702148,0.6000977-0.6098633
			c0.2695312-0.1899414,0.5795898-0.2900391,0.9794922-0.2900391c0.8100586,0,1.6293945,0.5498047,1.6293945,2.109375v2.8686523
			h-1.199707v-2.6884766c0-0.8095703-0.2797852-1.2900391-0.8696289-1.2900391c-0.4194336,0-0.7290039,0.300293-0.8598633,0.6499023
			c-0.0292969,0.1201172-0.0595703,0.2695312-0.0595703,0.4101562v2.918457h-1.1992188v-2.8188477
			c0-0.6791992-0.2700195-1.159668-0.8398438-1.159668c-0.4594727,0-0.7695312,0.3603516-0.8793945,0.7001953
			c-0.050293,0.1196289-0.0698242,0.2597656-0.0698242,0.3994141v2.8789062h-1.2001953V16.1801758z"/>
	</g>
</g>
<g opacity="0.3">
	<path fill="#58595B" d="M135.5039062,45.3232422H9.0380859c-3.4213867,0-6.2050781-2.7900391-6.2050781-6.2197266V9.5742188
		c0-3.4296875,2.7836914-6.2197266,6.2050781-6.2197266h126.4658203c3.421875,0,6.2060547,2.7900391,6.2060547,6.2197266v29.5292969
		C141.7099609,42.5332031,138.9257812,45.3232422,135.5039062,45.3232422z M9.0380859,4.3544922
		c-2.8701172,0-5.2050781,2.3417969-5.2050781,5.2197266v29.5292969c0,2.8779297,2.3349609,5.2197266,5.2050781,5.2197266
		h126.4658203c2.8706055,0,5.2060547-2.3417969,5.2060547-5.2197266V9.5742188c0-2.8779297-2.3354492-5.2197266-5.2060547-5.2197266
		H9.0380859z"/>
</g>
<g>
	<path fill="#58595B" d="M21.5097656,12.2363281c-5.8525391,0-10.5947266,4.7436523-10.5947266,10.5952148
		c0,5.8530273,4.7421875,10.5947266,10.5947266,10.5947266s10.5942383-4.7416992,10.5942383-10.5947266
		C32.1040039,16.9799805,27.3623047,12.2363281,21.5097656,12.2363281z M21.5097656,14.0024414
		c4.8764648,0,8.8286133,3.9541016,8.8286133,8.8291016s-3.9521484,8.8291016-8.8286133,8.8291016
		c-4.8759766,0-8.8291016-3.9541016-8.8291016-8.8291016S16.6337891,14.0024414,21.5097656,14.0024414z"/>
</g>
<g>
	<path fill="#58595B" d="M28.9628906,32.8486328l2.5068359-2.4882812l3.7314453,3.7592773l-2.5068359,2.4887695
		L28.9628906,32.8486328z"/>
</g>
<g>
	<g>
		<polygon fill="#58595B" points="41.5273438,35.2998047 41.5273438,22.871582 43.3056641,22.871582 43.3056641,33.7753906 
			48.5307617,33.7753906 48.5307617,35.2998047 		"/>
	</g>
	<g>
		<path fill="#58595B" d="M49.5483398,35.2998047v-8.9814453h1.796875v8.9814453H49.5483398z M50.4106445,25.03125
			c-0.6049805,0-1.0615234-0.4643555-1.0615234-1.0800781c0-0.6254883,0.472168-1.0976562,1.0976562-1.0976562
			c0.6357422,0,1.0800781,0.4516602,1.0800781,1.0976562c0.0092773,0.2871094-0.090332,0.5561523-0.28125,0.753418
			C51.0419922,24.9150391,50.7451172,25.03125,50.4106445,25.03125z"/>
	</g>
	<g>
		<path fill="#58595B" d="M55.5859375,35.2998047l-3.4145508-8.9814453h1.9213867l1.7470703,5.0019531
			c0.2861328,0.7871094,0.4907227,1.4243164,0.6513672,2.0297852c0.1523438-0.5888672,0.3823242-1.2504883,0.6665039-2.0307617
			l1.7275391-5.0009766h1.887207l-3.5253906,8.9814453H55.5859375z"/>
	</g>
	<g>
		<path fill="#58595B" d="M65.1455078,35.4814453c-2.6835938,0-4.4179688-1.7773438-4.4179688-4.5273438
			c0-2.8466797,1.7348633-4.8349609,4.2182617-4.8349609c2.7524414,0,3.7290039,2.2822266,3.7290039,4.2363281
			c0,0.2827148-0.0268555,0.5117188-0.0463867,0.6762695l-0.0102539,0.0883789l-0.0981445,0.0795898h-6.0654297
			c0.0683594,1.7856445,1.1494141,2.8476562,2.9086914,2.8476562c1.1787109,0,1.8461914-0.2138672,2.3920898-0.4458008
			l0.1088867-0.0458984l0.3183594,1.3383789l-0.0751953,0.0341797
			C67.5483398,35.1806641,66.5805664,35.4814453,65.1455078,35.4814453z M66.9321289,29.8564453
			c-0.0058594-0.3754883-0.0854492-1.2558594-0.6621094-1.8432617c-0.3588867-0.3657227-0.847168-0.5507812-1.4511719-0.5507812
			c-1.5649414,0-2.1938477,1.4545898-2.3349609,2.394043H66.9321289z"/>
	</g>
	<g>
		<path fill="#58595B" d="M73.3759766,35.2998047V23.0322266l0.0834961-0.0141602
			c0.9443359-0.1572266,1.9692383-0.2373047,3.0463867-0.2373047c1.5517578,0,2.7280273,0.3505859,3.4956055,1.0419922
			c0.7114258,0.6147461,1.1040039,1.550293,1.1040039,2.6323242c0,1.1162109-0.3271484,2.0185547-0.9716797,2.6821289
			c-0.8310547,0.8847656-2.1845703,1.3730469-3.8095703,1.3730469c-0.394043,0-0.8056641-0.0107422-1.1699219-0.0839844v4.8735352
			H73.3759766z M75.1542969,28.9345703c0.3076172,0.0712891,0.7036133,0.1054688,1.206543,0.1054688
			c1.8847656,0,2.9658203-0.9160156,2.9658203-2.5126953c0-1.4794922-0.9887695-2.2944336-2.784668-2.2944336
			c-0.5756836,0-1.0844727,0.0390625-1.3876953,0.1054688V28.9345703z"/>
	</g>
	<g>
		<path fill="#58595B" d="M82.1958008,35.2998047v-6.1416016c0-1.1396484-0.0219727-1.9824219-0.0717773-2.7329102
			l-0.0073242-0.1069336h1.6005859l0.046875,1.4907227c0.4365234-1.0136719,1.3676758-1.6899414,2.4145508-1.6899414
			c0.1787109,0,0.3125,0.0161133,0.4780273,0.0571289l0.0756836,0.019043v1.7084961l-0.121582-0.0268555
			c-0.1645508-0.0361328-0.3208008-0.0517578-0.5229492-0.0517578c-1.0234375,0-1.824707,0.7724609-2.0419922,1.9677734
			c-0.0356445,0.2114258-0.0712891,0.4594727-0.0712891,0.7260742v4.7807617H82.1958008z"/>
	</g>
	<g>
		<path fill="#58595B" d="M91.2421875,35.4814453c-2.6835938,0-4.4179688-1.7773438-4.4179688-4.5273438
			c0-2.8466797,1.7348633-4.8349609,4.2182617-4.8349609c2.7524414,0,3.7290039,2.2822266,3.7290039,4.2363281
			c0,0.2827148-0.0268555,0.5117188-0.0463867,0.6762695l-0.0102539,0.0883789l-0.0981445,0.0795898h-6.0654297
			c0.0683594,1.7856445,1.1494141,2.8476562,2.9086914,2.8476562c1.1787109,0,1.8461914-0.2138672,2.3920898-0.4458008
			l0.1088867-0.0458984l0.3183594,1.3383789l-0.0751953,0.0341797
			C93.6450195,35.1806641,92.6772461,35.4814453,91.2421875,35.4814453z M93.0288086,29.8564453
			c-0.0058594-0.3754883-0.0854492-1.2558594-0.6621094-1.8432617c-0.3588867-0.3657227-0.847168-0.5507812-1.4511719-0.5507812
			c-1.5649414,0-2.1938477,1.4545898-2.3349609,2.394043H93.0288086z"/>
	</g>
	<g>
		<path fill="#58595B" d="M98.3422852,35.2998047l-3.4145508-8.9814453h1.9213867l1.7470703,5.0019531
			c0.2861328,0.7871094,0.4907227,1.4243164,0.6513672,2.0297852c0.1523438-0.5888672,0.3823242-1.2504883,0.6665039-2.0307617
			l1.7275391-5.0009766h1.887207l-3.5253906,8.9814453H98.3422852z"/>
	</g>
	<g>
		<path fill="#58595B" d="M104.2998047,35.2998047v-8.9814453h1.796875v8.9814453H104.2998047z M105.1621094,25.03125
			c-0.6049805,0-1.0615234-0.4643555-1.0615234-1.0800781c0-0.6254883,0.472168-1.0976562,1.0976562-1.0976562
			c0.6357422,0,1.0800781,0.4516602,1.0800781,1.0976562c0.0092773,0.2871094-0.090332,0.5561523-0.28125,0.753418
			C105.793457,24.9150391,105.496582,25.03125,105.1621094,25.03125z"/>
	</g>
	<g>
		<path fill="#58595B" d="M111.8393555,35.4814453c-2.6835938,0-4.4179688-1.7773438-4.4179688-4.5273438
			c0-2.8466797,1.7348633-4.8349609,4.2182617-4.8349609c2.7524414,0,3.7290039,2.2822266,3.7290039,4.2363281
			c0,0.2827148-0.0268555,0.5117188-0.0463867,0.6762695l-0.0102539,0.0883789l-0.0981445,0.0795898h-6.0654297
			c0.0683594,1.7856445,1.1494141,2.8476562,2.9086914,2.8476562c1.1787109,0,1.8461914-0.2138672,2.3920898-0.4458008
			l0.1088867-0.0458984l0.3183594,1.3383789l-0.0751953,0.0341797
			C114.2421875,35.1806641,113.2744141,35.4814453,111.8393555,35.4814453z M113.6259766,29.8564453
			c-0.0058594-0.3754883-0.0854492-1.2558594-0.6621094-1.8432617c-0.3588867-0.3657227-0.847168-0.5507812-1.4511719-0.5507812
			c-1.5649414,0-2.1938477,1.4545898-2.3349609,2.394043H113.6259766z"/>
	</g>
	<g>
		<path fill="#58595B" d="M124.1606445,35.2998047l-1.3652344-4.2607422
			c-0.2768555-0.8798828-0.5058594-1.6621094-0.7026367-2.527832c-0.2158203,0.9545898-0.4731445,1.7861328-0.7216797,2.546875
			l-1.4384766,4.2416992h-1.597168l-2.7094727-8.9814453h1.8447266l1.1806641,4.5380859
			c0.2290039,0.8828125,0.440918,1.7011719,0.5996094,2.5083008c0.1655273-0.7714844,0.4345703-1.6459961,0.6958008-2.4941406
			l1.4555664-4.5522461h1.4897461l1.3823242,4.4609375c0.2998047,0.9663086,0.5292969,1.7954102,0.7148438,2.581543
			c0.1245117-0.8222656,0.362793-1.71875,0.5991211-2.5605469l1.2724609-4.4819336h1.7915039l-2.8950195,8.9814453H124.1606445z"/>
	</g>
</g>
</svg>
