<?xml version="1.0" encoding="utf-8"?>
<!-- Generator: Adobe Illustrator 16.0.0, SVG Export Plug-In . SVG Version: 6.00 Build 0)  -->
<!DOCTYPE svg PUBLIC "-//W3C//DTD SVG 1.1//EN" "http://www.w3.org/Graphics/SVG/1.1/DTD/svg11.dtd">
<svg version="1.1" id="Layer_1" xmlns="http://www.w3.org/2000/svg" xmlns:xlink="http://www.w3.org/1999/xlink" x="0px" y="0px"
	 width="57.4125977px" height="17.9375px" viewBox="0 0 57.4125977 17.9375" enable-background="new 0 0 57.4125977 17.9375"
	 xml:space="preserve">
<g>
	<path fill-rule="evenodd" clip-rule="evenodd" d="M29.0258789,16.9111328c-0.5429688,0-1.0727539-0.0429688-1.5737305-0.125
		c-0.5996094-0.1015625-1.1035156-0.2617188-1.5410156-0.4941406c-0.7832031-0.4179688-1.2905273-1.0449219-1.5092773-1.8652344
		c-0.0776367-0.2910156-0.1171875-0.6035156-0.128418-1.0117188l-0.0068359-0.2558594h2.7202148l0.0498047,0.3671875
		c0.0136719,0.1074219,0.0263672,0.2148438,0.0488281,0.3203125c0.1005859,0.4628906,0.3886719,0.765625,0.8808594,0.9257812
		c0.3149414,0.1015625,0.6469727,0.1523438,1.0131836,0.1523438c0.2236328,0,0.4487305-0.0195312,0.6748047-0.0507812
		c0.3276367-0.0488281,0.6088867-0.1464844,0.8583984-0.296875c0.3681641-0.2226562,0.6245117-0.5527344,0.7836914-1.0136719
		c0.1313477-0.3789062,0.2084961-0.8066406,0.2431641-1.3417969c0.015625-0.25,0.0234375-0.5,0.0297852-0.7519531
		c-0.5776367,0.6113281-1.2929688,0.9980469-2.1259766,1.1523438c-0.3452148,0.0625-0.690918,0.0957031-1.0273438,0.0957031
		c-0.5947266,0-1.1796875-0.1015625-1.7387695-0.3007812c-0.7670898-0.2753906-1.4086914-0.7539062-1.9072266-1.4238281
		c-0.4970703-0.6660156-0.8144531-1.4277344-0.9702148-2.3261719c-0.1430664-0.8222656-0.1538086-1.6621094-0.0332031-2.5
		c0.0917969-0.6328125,0.2719727-1.2167969,0.5356445-1.7304688c0.7158203-1.3984375,1.8017578-2.2285156,3.2280273-2.46875
		c0.3232422-0.0546875,0.6445312-0.0839844,0.9541016-0.0839844c0.4257812,0,0.8461914,0.0527344,1.2490234,0.15625
		c0.7573242,0.1953125,1.402832,0.5898438,1.9223633,1.1738281V2.0986328h2.8457031v0.6132812l-0.0185547,1.0625
		c-0.0136719,0.7792969-0.0283203,1.5585938-0.0322266,2.3378906c-0.0048828,0.7597656-0.0039062,1.5214844-0.0039062,2.28125
		c0.0009766,0.6933594,0.0019531,1.3847656-0.0019531,2.078125c-0.0068359,1.0214844-0.078125,1.8671875-0.2246094,2.65625
		c-0.1044922,0.5527344-0.2578125,1.1992188-0.6088867,1.8046875c-0.4091797,0.7070312-1.0419922,1.2285156-1.8813477,1.5527344
		c-0.6015625,0.2324219-1.2602539,0.3613281-2.0727539,0.4082031
		C29.4467773,16.9052734,29.2363281,16.9111328,29.0258789,16.9111328z M29.1499023,3.8955078
		c-0.1098633,0-0.2207031,0.0078125-0.331543,0.0195312c-0.3168945,0.0371094-0.6030273,0.1347656-0.8515625,0.2890625
		c-0.4462891,0.28125-0.7758789,0.7109375-1.0058594,1.3164062c-0.1987305,0.5234375-0.2895508,1.1113281-0.2954102,1.90625
		c0,0,0.0136719,0.3125,0.0229492,0.4335938c0.0541992,0.7050781,0.2216797,1.28125,0.5117188,1.7636719
		c0.2304688,0.3867188,0.512207,0.65625,0.8603516,0.8261719c0.3188477,0.1582031,0.6572266,0.234375,1.0356445,0.234375l0,0
		c0.1625977,0,0.3261719-0.0136719,0.4916992-0.0390625c0.4360352-0.0703125,0.8115234-0.265625,1.1147461-0.5820312
		c0.3085938-0.3222656,0.5288086-0.7265625,0.6738281-1.2382812c0.1821289-0.6367188,0.2441406-1.3066406,0.1894531-2.0488281
		c-0.0600586-0.8125-0.2973633-1.4824219-0.7250977-2.0488281c-0.2631836-0.3496094-0.5913086-0.5917969-0.9755859-0.7207031
		C29.6416016,3.9326172,29.4008789,3.8955078,29.1499023,3.8955078z"/>
</g>
<g>
	<path fill-rule="evenodd" clip-rule="evenodd" d="M2.2143555,17.0068359c0,0-0.0029297-7.9199219-0.0024414-8.6132812
		c0.0009766-0.7597656,0.0014648-1.5214844-0.003418-2.28125C2.2045898,5.3330078,2.1904297,4.5537109,2.1762695,3.7744141
		L2.1577148,2.0986328H5.003418v1.1152344C5.5229492,2.6298828,6.168457,2.2353516,6.9262695,2.0400391
		c0.4023438-0.1035156,0.8227539-0.15625,1.2485352-0.15625c0.3095703,0,0.6308594,0.0292969,0.9541016,0.0839844
		c1.4262695,0.2402344,2.512207,1.0703125,3.2280273,2.46875c0.2636719,0.5136719,0.4438477,1.0976562,0.5356445,1.7304688
		c0.1206055,0.8378906,0.1098633,1.6777344-0.0332031,2.5c-0.1557617,0.8984375-0.4731445,1.6601562-0.9707031,2.3261719
		c-0.4980469,0.6699219-1.1396484,1.1484375-1.9072266,1.4238281c-0.5585938,0.1992188-1.1435547,0.3007812-1.7382812,0.3007812
		c-0.3364258,0-0.6821289-0.0332031-1.0283203-0.0957031c-0.8388672-0.1542969-1.5585938-0.546875-2.1396484-1.1660156
		l0.0170898,5.5507812H2.2143555z M7.5092773,3.8955078c-0.2509766,0-0.4916992,0.0371094-0.7158203,0.1113281
		C6.409668,4.1357422,6.081543,4.3779297,5.8183594,4.7275391C5.390625,5.2939453,5.1533203,5.9638672,5.0932617,6.7763672
		C5.0385742,7.5185547,5.1005859,8.1884766,5.2822266,8.8251953c0.1455078,0.5117188,0.3657227,0.9160156,0.6738281,1.2382812
		c0.3037109,0.3164062,0.6791992,0.5117188,1.1157227,0.5820312c0.1650391,0.0253906,0.3291016,0.0390625,0.4912109,0.0390625l0,0
		c0.378418,0,0.7167969-0.0761719,1.034668-0.2324219c0.3491211-0.171875,0.6308594-0.4414062,0.8613281-0.828125
		c0.2900391-0.4824219,0.4575195-1.0585938,0.5112305-1.7636719c0.0097656-0.1210938,0.0239258-0.4492188,0.0239258-0.4492188
		c-0.0063477-0.7792969-0.097168-1.3671875-0.2958984-1.890625C9.4682617,4.9150391,9.1386719,4.4853516,8.6914062,4.2041016
		C8.4438477,4.0498047,8.1577148,3.9521484,7.8422852,3.9150391C7.7299805,3.9033203,7.6191406,3.8955078,7.5092773,3.8955078z"/>
</g>
<path fill-rule="evenodd" clip-rule="evenodd" d="M21.934082,11.9931641
	c-0.0698242,0.0058594,0.5029297,0.3027344,0.456543,0.3027344c-0.8417969,0-0.8569336-0.5761719-1.7001953-0.5703125
	c-0.1293945,0.0019531-0.1669922,0.2167969-0.1889648,0.0957031c-0.0473633-0.2675781-0.121582,0.0117188-0.1723633-0.2539062
	c-0.1894531,0.1445312-0.3828125,0.3085938-0.5864258,0.4550781c-0.4458008,0.3222656-0.9414062,0.5332031-1.4746094,0.6582031
	c-0.796875,0.1816406-1.6000977,0.1894531-2.3974609,0.0351562c-0.8442383-0.1640625-1.5732422-0.5449219-2.0605469-1.2949219
	c-0.2270508-0.3515625-0.3598633-0.734375-0.4135742-1.1503906c-0.0556641-0.421875-0.0541992-0.84375,0.0288086-1.2617188
	c0.1420898-0.7285156,0.5292969-1.2929688,1.1474609-1.6992188c0.4868164-0.3222656,1.0322266-0.4960938,1.5996094-0.5917969
	c0.9467773-0.15625,1.9003906-0.2832031,2.8466797-0.4394531c0.3056641-0.0507812,0.6054688-0.1523438,0.8994141-0.2558594
	c0.2099609-0.0742188,0.3515625-0.2421875,0.3706055-0.4667969c0.0229492-0.2421875,0.0410156-0.4921875-0.0068359-0.7265625
	c-0.1191406-0.5703125-0.550293-0.8320312-1.0756836-0.9335938c-0.5839844-0.1132812-1.1738281-0.1054688-1.7519531,0.0664062
	c-0.4086914,0.125-0.6748047,0.4003906-0.8242188,0.7929688c-0.0629883,0.1640625-0.0942383,0.3417969-0.1450195,0.5117188
	c-0.0200195,0.0722656-0.0332031,0.140625-0.1479492,0.140625c-0.8276367-0.0078125-1.6547852-0.0058594-2.480957-0.0058594
	c-0.0146484,0-0.0297852-0.0058594-0.0708008-0.015625c0.0288086-0.1894531,0.0527344-0.3769531,0.0874023-0.5644531
	c0.1347656-0.7050781,0.4399414-1.3261719,0.9799805-1.8105469c0.4785156-0.4316406,1.0517578-0.6933594,1.6708984-0.8457031
	c1.0830078-0.2714844,2.1826172-0.2949219,3.2861328-0.1542969c0.7133789,0.0898438,1.4023438,0.2675781,2.0239258,0.6523438
	c0.7797852,0.4804688,1.2797852,1.0097656,1.28125,1.9316406c0.0043945,1.7089844-0.0244141,3.421875-0.0253906,5.1328125
	c0,0.5117188-0.6459961,1.0195312-0.5883789,1.5253906c0.0371094,0.328125-0.887207,0.0390625-0.8032227,0.3632812
	C21.7080078,11.6494141,21.9150391,11.9384766,21.934082,11.9931641z M20.3212891,7.5107422
	c-0.6494141,0.3671875-1.3330078,0.421875-2.0019531,0.5507812c-0.4482422,0.0820312-0.8901367,0.2070312-1.3261719,0.3398438
	c-0.2387695,0.0683594-0.4282227,0.2324219-0.5639648,0.4492188c-0.2158203,0.3457031-0.2158203,0.7246094-0.1508789,1.1035156
	c0.0498047,0.28125,0.1958008,0.5253906,0.4306641,0.703125c0.5043945,0.3789062,1.0795898,0.3789062,1.6621094,0.2792969
	c0.4194336-0.0664062,0.8022461-0.2402344,1.140625-0.5078125c0.2993164-0.2363281,0.5615234-0.4980469,0.6811523-0.875
	C20.4038086,8.8974609,20.2714844,8.2177734,20.3212891,7.5107422z"/>
<rect x="20.2993164" y="4.9091797" fill-rule="evenodd" clip-rule="evenodd" width="2.815918" height="7.5351562"/>
<path d="M21.1474609,5.0751953c-0.015625-0.0625-0.487793-0.7109375-0.6606445-0.8652344
	c-0.1743164-0.1601562-0.3945312-0.5839844-0.425293-0.6308594c-0.0322266-0.0488281-0.5356445-0.2050781-0.9921875-0.3632812
	c-0.4570312-0.15625-0.4248047,0-0.6923828,0c-0.2680664,0-0.8344727,0.046875-0.9921875,0.0800781
	c-0.1572266,0.0332031-0.5664062,0.3632812-0.5986328,0.4082031c-0.0307617,0.046875-0.8027344,0.7558594-0.8027344,0.7558594
	l0.105957,0.9375h0.4272461c-0.0014648-0.1660156,0.0239258-0.6347656,0.3725586-1.015625
	c0.3017578-0.3300781,0.7617188-0.4980469,1.3657227-0.4980469c0.7973633,0,1.3242188,0.1777344,1.609375,0.5390625
	c0.1396484,0.1738281,0.1972656,0.3671875,0.2226562,0.5429688c0.0161133,0.0800781,0.0249023,0.1601562,0.0249023,0.25
	c0,0.0195312-0.0029297,0.0351562-0.0029297,0.0546875c0,0.0214844,0,0.0410156,0,0.0605469h-0.0043945
	c-0.0180664,0.2421875-0.0883789,0.4335938-0.2158203,0.5625c-0.1503906,0.1523438-0.3530273,0.2636719-0.609375,0.3359375
	c-0.2563477,0.0703125-0.5517578,0.1230469-0.8857422,0.1523438c-0.1967773,0.0175781-0.4174805,0.0507812-0.6318359,0.078125
	v0.0722656h-0.5419922c-0.3525391,0.0566406-0.6967773,0.1191406-1.0473633,0.1914062l0.015625,0.4199219
	c0,0,0.4248047,0.0566406,0.9609375-0.0078125c0.5351562-0.0625,0.2832031,0.03125,0.9448242,0
	c0.6601562-0.03125,0.503418-0.078125,1.1489258-0.2363281c0.6459961-0.15625,0.362793-0.109375,0.7236328-0.25
	c0.3623047-0.1425781,0.2045898-0.0957031,0.331543-0.1738281c0.125-0.078125,0.4091797-0.2832031,0.6923828-0.6289062
	C21.2734375,5.4990234,21.1630859,5.1376953,21.1474609,5.0751953z"/>
<path d="M40.4545898,8.3427734"/>
<path d="M38.1225586,8.5927734"/>
<path d="M37.8959961,9.3974609"/>
<path fill-rule="evenodd" clip-rule="evenodd" d="M46.0297852,8.0419922l0.0068359-0.1113281
	c-0.0048828-0.7558594-0.0498047-1.4257812-0.1396484-2.0488281c-0.1142578-0.7832031-0.3798828-1.4921875-0.7910156-2.1074219
	c-0.4326172-0.6445312-1.0039062-1.1347656-1.6972656-1.4589844c-0.5361328-0.25-1.125-0.4023438-1.7998047-0.4667969
	c-0.2646484-0.0253906-0.5283203-0.0390625-0.7890625-0.0390625c-0.5634766,0-1.1171875,0.0644531-1.6425781,0.1855469
	c-1.7265625,0.4082031-2.8984375,1.5058594-3.4814453,3.2578125c-0.2294922,0.6894531-0.3359375,1.4453125-0.3339844,2.3789062
	c0.0009766,0.6113281,0.0634766,1.1601562,0.1914062,1.6816406c0.1416016,0.5820312,0.3544922,1.0820312,0.6503906,1.5332031
	c0.3535156,0.5410156,0.8134766,0.9863281,1.3671875,1.3203125c0.7080078,0.4296875,1.546875,0.6757812,2.5615234,0.75
	c0.2207031,0.015625,0.4404297,0.0234375,0.6611328,0.0234375c0.3935547,0,0.7880859-0.0273438,1.1748047-0.0800781
	c0.6142578-0.0878906,1.1464844-0.234375,1.6279297-0.4492188c0.4765625-0.2089844,0.8916016-0.4863281,1.2333984-0.8261719
	c0.3671875-0.3632812,0.6513672-0.8066406,0.8417969-1.3144531c0.1181641-0.3125,0.2021484-0.6445312,0.2568359-1.0175781
	l0.0195312-0.1347656h-3.1425781l-0.0634766,0.2714844c-0.0302734,0.125-0.0576172,0.25-0.0957031,0.3671875
	c-0.1542969,0.4804688-0.4375,0.8046875-0.8652344,0.9941406c-0.2138672,0.09375-0.4570312,0.1484375-0.7382812,0.1699219
	c-0.0800781,0.0078125-0.1601562,0.0097656-0.2392578,0.0097656c-0.3017578,0-0.5722656-0.0449219-0.8251953-0.1386719
	c-0.4609375-0.1660156-0.8115234-0.4941406-1.0751953-1.0039062c-0.171875-0.328125-0.2802734-0.6933594-0.3320312-1.1132812
	c-0.0185547-0.1464844-0.0283203-0.2949219-0.0380859-0.4472656l-0.0078125-0.1113281h7.3876953L46.0297852,8.0419922z
	 M42.8803711,6.4658203H38.597168V6.0419922l-0.0117188,0.0957031l0.0117188-0.0957031
	c0.0146484-0.1464844,0.0302734-0.2871094,0.0566406-0.4277344c0.0898438-0.484375,0.3095703-0.8945312,0.6484375-1.2226562
	c0.2978516-0.2890625,0.6572266-0.4628906,1.0996094-0.5332031c0.1542969-0.0253906,0.3085938-0.0371094,0.4619141-0.0371094
	c0.2050781,0,0.4091797,0.0234375,0.6074219,0.0683594c0.5859375,0.1347656,0.9931641,0.4921875,1.2109375,1.0585938
	c0.1308594,0.3378906,0.1953125,0.7089844,0.2070312,1.1894531h-0.0087891V6.4658203z"/>
<g id="LelJKN_1_">
	<g>
		<path fill-rule="evenodd" clip-rule="evenodd" d="M55.543457,3.2001953
			c-0.4199219,0.609375-0.8369141,1.2089844-1.2578125,1.8144531c-0.5888672-0.3964844-1.1894531-0.7363281-1.8535156-0.9433594
			c-0.6816406-0.2128906-1.3740234-0.3222656-2.0761719-0.09375c-0.5595703,0.1816406-0.8125,0.7363281-0.5517578,1.1972656
			c0.1494141,0.2675781,0.4072266,0.4082031,0.6845703,0.4804688c0.5185547,0.1367188,1.0449219,0.2539062,1.5712891,0.359375
			c0.7822266,0.1582031,1.5615234,0.3125,2.2841797,0.6757812c1.1767578,0.5859375,1.7021484,1.5605469,1.5683594,2.8691406
			c-0.1503906,1.4628906-0.9882812,2.3632812-2.3203125,2.859375c-0.8222656,0.3027344-1.6777344,0.3886719-2.5507812,0.3730469
			c-0.8476562-0.0175781-1.6826172-0.125-2.4941406-0.3769531c-0.8505859-0.2636719-1.6142578-0.6757812-2.3017578-1.2578125
			c0.4375-0.9101562,0.5556641-1.2558594,0.6816406-2.078125c0.1142578,0.0839844,0.3701172,0.3144531,0.8378906,0.5839844
			c1.0751953,0.7597656,2.3583984,1.1113281,3.6787109,1.0644531c0.3203125-0.0136719,0.6523438-0.1152344,0.9580078-0.2324219
			c0.3408203-0.1347656,0.5195312-0.4277344,0.5234375-0.8027344c0.0019531-0.3808594-0.1796875-0.6582031-0.5117188-0.8378906
			c-0.4707031-0.2519531-0.9912109-0.3378906-1.5058594-0.4335938c-0.8291016-0.1582031-1.6582031-0.3066406-2.4355469-0.65625
			c-0.8251953-0.3671875-1.4453125-0.9433594-1.6494141-1.8476562c-0.3623047-1.6132812,0.2734375-3.0820312,1.8369141-3.7832031
			c0.8789062-0.3945312,1.8056641-0.4785156,2.7529297-0.4257812c0.8886719,0.0507812,1.7558594,0.1933594,2.5820312,0.546875
			C54.5522461,2.4970703,55.0639648,2.8095703,55.543457,3.2001953z"/>
	</g>
</g>
</svg>
