<?xml version="1.0" encoding="utf-8"?>
<!-- Generator: Adobe Illustrator 16.0.0, SVG Export Plug-In . SVG Version: 6.00 Build 0)  -->
<!DOCTYPE svg PUBLIC "-//W3C//DTD SVG 1.1//EN" "http://www.w3.org/Graphics/SVG/1.1/DTD/svg11.dtd">
<svg version="1.1" id="Layer_1" xmlns="http://www.w3.org/2000/svg" xmlns:xlink="http://www.w3.org/1999/xlink" x="0px" y="0px"
	 width="59px" height="19px" viewBox="0 0 59 19" enable-background="new 0 0 59 19" xml:space="preserve">
<g>
	<path fill-rule="evenodd" clip-rule="evenodd" fill="#FFFFFF" d="M31.8222656,3.3935547
		c-0.5195312-0.5839844-1.1650391-0.9785156-1.9223633-1.1728516c-0.402832-0.1035156-0.8232422-0.15625-1.2490234-0.15625
		c-0.3095703,0-0.6308594,0.0283203-0.9541016,0.0830078c-1.4262695,0.2402344-2.512207,1.0712891-3.2280273,2.46875
		c-0.2636719,0.5146484-0.4438477,1.0976562-0.5356445,1.7304688c-0.1206055,0.8378906-0.1098633,1.6787109,0.0332031,2.5
		c0.1557617,0.8994141,0.4731445,1.6611328,0.9702148,2.3271484c0.4985352,0.6699219,1.1401367,1.1484375,1.9072266,1.4228516
		c0.559082,0.2001953,1.144043,0.3017578,1.7387695,0.3017578c0.3364258,0,0.6821289-0.0332031,1.0273438-0.0966797
		c0.8330078-0.1533203,1.5483398-0.5400391,2.1259766-1.1513672c-0.0063477,0.2509766-0.0141602,0.5009766-0.0297852,0.7509766
		c-0.034668,0.5361328-0.1118164,0.9628906-0.2431641,1.3417969c-0.1591797,0.4609375-0.4155273,0.7919922-0.7836914,1.0146484
		c-0.2495117,0.1503906-0.5307617,0.2470703-0.8583984,0.2958984c-0.2260742,0.0322266-0.4511719,0.0507812-0.6748047,0.0507812
		c-0.3662109,0-0.6982422-0.0498047-1.0131836-0.1513672c-0.4921875-0.1611328-0.7802734-0.4638672-0.8808594-0.9257812
		c-0.0224609-0.1054688-0.0351562-0.2128906-0.0488281-0.3203125l-0.0498047-0.3681641h-2.7202148l0.0068359,0.2568359
		c0.0112305,0.4082031,0.0507812,0.7207031,0.128418,1.0117188c0.21875,0.8193359,0.7260742,1.4472656,1.5092773,1.8642578
		c0.4375,0.2324219,0.9414062,0.3935547,1.5410156,0.4941406c0.5009766,0.0830078,1.0307617,0.125,1.5737305,0.125
		c0.2104492,0,0.4208984-0.0058594,0.6313477-0.0175781c0.8125-0.0458984,1.4711914-0.1748047,2.0727539-0.4072266
		c0.8393555-0.3242188,1.472168-0.8466797,1.8813477-1.5527344c0.3510742-0.6054688,0.5043945-1.2519531,0.6088867-1.8046875
		c0.1464844-0.7900391,0.2177734-1.6347656,0.2246094-2.6572266c0.0039062-0.6923828,0.0029297-1.3847656,0.0019531-2.0771484
		c0-0.7607422-0.0009766-1.5214844,0.0039062-2.2822266c0.0039062-0.7783203,0.0185547-1.5576172,0.0322266-2.3369141
		l0.0185547-1.0625V2.2783203h-2.8457031V3.3935547z M31.5429688,9.0058594
		c-0.1450195,0.5117188-0.3652344,0.9160156-0.6738281,1.2373047c-0.3032227,0.3164062-0.6787109,0.5126953-1.1147461,0.5820312
		c-0.1655273,0.0263672-0.3291016,0.0400391-0.4916992,0.0400391c-0.378418,0-0.7167969-0.0761719-1.0356445-0.234375
		c-0.3481445-0.1708984-0.6298828-0.4404297-0.8603516-0.8261719c-0.2900391-0.4824219-0.4575195-1.0595703-0.5117188-1.7646484
		c-0.0092773-0.1201172-0.0229492-0.4326172-0.0229492-0.4326172c0.0058594-0.7949219,0.0966797-1.3828125,0.2954102-1.90625
		c0.2299805-0.6054688,0.5595703-1.0361328,1.0058594-1.3173828c0.2485352-0.1542969,0.534668-0.2519531,0.8515625-0.2880859
		c0.1108398-0.0126953,0.2216797-0.0205078,0.331543-0.0205078c0.2509766,0,0.4916992,0.0380859,0.715332,0.1123047
		c0.3842773,0.1279297,0.7124023,0.3701172,0.9755859,0.7197266c0.4277344,0.5664062,0.6650391,1.2373047,0.7250977,2.0488281
		C31.7871094,7.6982422,31.7250977,8.3681641,31.5429688,9.0058594z"/>
	<path fill-rule="evenodd" clip-rule="evenodd" fill="#FFFFFF" d="M12.5234375,4.6162109
		c-0.7158203-1.3974609-1.8017578-2.2285156-3.2280273-2.46875C8.972168,2.0927734,8.6508789,2.0644531,8.3413086,2.0644531
		c-0.4257812,0-0.8461914,0.0527344-1.2485352,0.15625C6.3349609,2.4150391,5.6894531,2.8095703,5.1699219,3.3935547V2.2783203
		H2.3242188l0.0185547,1.6767578C2.3569336,4.734375,2.3710938,5.5136719,2.375,6.2929688
		c0.0048828,0.7597656,0.0043945,1.5205078,0.003418,2.28125C2.3779297,9.2666016,2.3808594,17.1875,2.3808594,17.1875h2.8779297
		l-0.0170898-5.5517578c0.5810547,0.6201172,1.3007812,1.0117188,2.1396484,1.1660156
		c0.3461914,0.0634766,0.6918945,0.0966797,1.0283203,0.0966797c0.5947266,0,1.1796875-0.1015625,1.7382812-0.3017578
		c0.7675781-0.2744141,1.4091797-0.7529297,1.9072266-1.4228516c0.4975586-0.6660156,0.8149414-1.4277344,0.9707031-2.3271484
		c0.1430664-0.8212891,0.1538086-1.6621094,0.0332031-2.5C12.9672852,5.7138672,12.7871094,5.1308594,12.5234375,4.6162109z
		 M10.1367188,8.0400391c-0.0537109,0.7050781-0.2211914,1.2822266-0.5112305,1.7646484
		c-0.2304688,0.3857422-0.512207,0.6552734-0.8613281,0.8271484c-0.3178711,0.1572266-0.65625,0.2333984-1.034668,0.2333984
		c-0.1621094,0-0.3261719-0.0136719-0.4912109-0.0400391c-0.4365234-0.0693359-0.8120117-0.265625-1.1157227-0.5820312
		C5.8144531,9.921875,5.5942383,9.5175781,5.4487305,9.0058594C5.2670898,8.3681641,5.2050781,7.6982422,5.2597656,6.9560547
		c0.0600586-0.8115234,0.2973633-1.4824219,0.7250977-2.0488281C6.2480469,4.5576172,6.5761719,4.3154297,6.9599609,4.1875
		C7.184082,4.1132812,7.4248047,4.0751953,7.6757812,4.0751953c0.1098633,0,0.2207031,0.0078125,0.3330078,0.0205078
		c0.3154297,0.0361328,0.6015625,0.1337891,0.8491211,0.2880859c0.4472656,0.28125,0.7768555,0.7119141,1.0068359,1.3173828
		c0.1987305,0.5234375,0.2895508,1.1113281,0.2958984,1.890625C10.1606445,7.5917969,10.1464844,7.9199219,10.1367188,8.0400391z"/>
	<path fill-rule="evenodd" clip-rule="evenodd" fill="#FFFFFF" d="M22.0004883,2.84375
		c-0.621582-0.3847656-1.3105469-0.5625-2.0239258-0.6523438c-1.1035156-0.1416016-2.203125-0.1171875-3.2861328,0.1542969
		c-0.6191406,0.1523438-1.1923828,0.4140625-1.6708984,0.8457031c-0.5400391,0.484375-0.8452148,1.1054688-0.9799805,1.8105469
		c-0.034668,0.1865234-0.0585938,0.375-0.0874023,0.5644531c0.0410156,0.0087891,0.0561523,0.015625,0.0708008,0.015625
		c0.8261719,0,1.6533203-0.0019531,2.480957,0.0048828c0.0131836,0,0.0146484-0.0078125,0.0249023-0.0097656h0.1542969
		C16.6816406,5.4111328,16.7070312,4.9433594,17.0556641,4.5625c0.3017578-0.3300781,0.7617188-0.4980469,1.3657227-0.4980469
		c0.7973633,0,1.3242188,0.1767578,1.609375,0.5380859c0.1396484,0.1748047,0.1972656,0.3671875,0.2226562,0.5439453
		c0.0161133,0.0791016,0.0249023,0.1591797,0.0249023,0.25c0,0.0195312-0.0029297,0.0351562-0.0029297,0.0546875
		c0,0.0205078,0,0.0400391,0,0.0595703h-0.0043945c-0.0180664,0.2421875-0.0883789,0.4335938-0.2158203,0.5625
		c-0.1328125,0.1347656-0.3134766,0.2314453-0.5288086,0.3037109c-0.1132812,0.0302734-0.2260742,0.0625-0.3408203,0.0810547
		c-0.2866211,0.0478516-0.574707,0.0898438-0.8623047,0.1337891c-0.1313477,0.015625-0.2607422,0.03125-0.3950195,0.0478516
		v0.0126953c-0.1279297,0.0195312-0.2558594,0.0400391-0.3837891,0.0595703h-0.1582031
		c-0.284668,0.046875-0.5639648,0.0996094-0.8452148,0.1552734c-0.0673828,0.0107422-0.1347656,0.0205078-0.2021484,0.03125
		c-0.5673828,0.0947266-1.112793,0.2695312-1.5996094,0.5908203c-0.6181641,0.4072266-1.0053711,0.9707031-1.1474609,1.7001953
		c-0.0830078,0.4179688-0.0844727,0.8388672-0.0288086,1.2617188c0.0537109,0.4160156,0.1865234,0.7978516,0.4135742,1.1503906
		c0.4873047,0.7490234,1.2163086,1.1298828,2.0605469,1.2939453c0.7973633,0.1542969,1.6005859,0.1474609,2.3974609-0.0351562
		c0.5332031-0.125,1.0288086-0.3349609,1.4746094-0.6572266c0.1933594-0.1386719,0.3764648-0.2929688,0.5566406-0.4326172V12.625
		h2.815918V5.0888672h-0.0014648c0-0.1044922,0.0019531-0.2099609,0.0014648-0.3144531
		C23.2802734,3.8525391,22.7802734,3.3232422,22.0004883,2.84375z M20.359375,9.734375
		c-0.1196289,0.3759766-0.3818359,0.6386719-0.6811523,0.8740234c-0.3383789,0.2675781-0.7211914,0.4423828-1.140625,0.5087891
		c-0.5825195,0.0986328-1.1577148,0.0996094-1.6621094-0.2792969c-0.2348633-0.1787109-0.3808594-0.4228516-0.4306641-0.703125
		c-0.0649414-0.3789062-0.0649414-0.7587891,0.1508789-1.1044922c0.1357422-0.2167969,0.3251953-0.3798828,0.5639648-0.4492188
		c0.4360352-0.1318359,0.8779297-0.2578125,1.3261719-0.3398438c0.6616211-0.1269531,1.3369141-0.1845703,1.9799805-0.5410156
		v1.4384766C20.4501953,9.3388672,20.4223633,9.5380859,20.359375,9.734375z"/>
	<path fill-rule="evenodd" clip-rule="evenodd" fill="#FFFFFF" d="M45.2724609,3.9541016
		c-0.4326172-0.6435547-1.0039062-1.1347656-1.6972656-1.4589844c-0.5361328-0.25-1.125-0.4023438-1.7998047-0.4658203
		c-0.2646484-0.0263672-0.5283203-0.0390625-0.7890625-0.0390625c-0.5634766,0-1.1171875,0.0634766-1.6425781,0.1855469
		c-1.7265625,0.4082031-2.8984375,1.5048828-3.4814453,3.2578125C35.6328125,6.1220703,35.5263672,6.8789062,35.5283203,7.8125
		c0.0009766,0.6103516,0.0634766,1.1591797,0.1914062,1.6806641c0.1416016,0.5820312,0.3544922,1.0830078,0.6503906,1.5332031
		c0.3535156,0.5419922,0.8134766,0.9863281,1.3671875,1.3212891c0.7080078,0.4296875,1.546875,0.6748047,2.5615234,0.7490234
		c0.2207031,0.0166016,0.4404297,0.0244141,0.6611328,0.0244141c0.3935547,0,0.7880859-0.0273438,1.1748047-0.0810547
		c0.6142578-0.0878906,1.1464844-0.2333984,1.6279297-0.4482422c0.4765625-0.2089844,0.8916016-0.4873047,1.2333984-0.8261719
		c0.3671875-0.3642578,0.6513672-0.8066406,0.8417969-1.3144531c0.1181641-0.3134766,0.2021484-0.6455078,0.2568359-1.0175781
		l0.0195312-0.1347656h-3.1425781l-0.0634766,0.2714844C42.8779297,9.6943359,42.8505859,9.8193359,42.8125,9.9375
		c-0.1542969,0.4794922-0.4375,0.8037109-0.8652344,0.9941406c-0.2138672,0.09375-0.4570312,0.1484375-0.7382812,0.1699219
		c-0.0800781,0.0068359-0.1601562,0.0087891-0.2392578,0.0087891c-0.3017578,0-0.5722656-0.0449219-0.8251953-0.1376953
		c-0.4609375-0.1669922-0.8115234-0.4951172-1.0751953-1.0039062c-0.171875-0.3291016-0.2802734-0.6943359-0.3320312-1.1142578
		c-0.0185547-0.1464844-0.0283203-0.2949219-0.0380859-0.4462891l-0.0078125-0.1123047h7.3876953l0.1171875-0.0732422
		l0.0068359-0.1113281C46.1982422,7.3554688,46.1533203,6.6855469,46.0634766,6.0625
		C45.9492188,5.2783203,45.6835938,4.5693359,45.2724609,3.9541016z M43.046875,6.3183594v0.3271484h-4.2832031V6.2226562
		c0.0146484-0.1464844,0.0302734-0.2880859,0.0566406-0.4277344c0.0898438-0.4853516,0.3095703-0.8955078,0.6484375-1.2236328
		c0.2978516-0.2890625,0.6572266-0.4628906,1.0996094-0.5332031c0.1542969-0.0253906,0.3085938-0.0371094,0.4619141-0.0371094
		c0.2050781,0,0.4091797,0.0234375,0.6074219,0.0693359c0.5859375,0.1337891,0.9931641,0.4912109,1.2109375,1.0585938
		c0.1308594,0.3369141,0.1953125,0.7080078,0.2070312,1.1894531H43.046875z"/>
	<path fill-rule="evenodd" clip-rule="evenodd" fill="#FFFFFF" d="M54.5107422,6.8701172
		c-0.7226562-0.3623047-1.5019531-0.5175781-2.2841797-0.6748047c-0.5263672-0.1064453-1.0527344-0.2236328-1.5712891-0.359375
		c-0.2773438-0.0722656-0.5351562-0.2138672-0.6845703-0.4804688c-0.2607422-0.4619141-0.0078125-1.015625,0.5517578-1.1982422
		c0.7021484-0.2275391,1.3945312-0.1181641,2.0761719,0.0947266c0.6640625,0.2070312,1.2646484,0.5458984,1.8535156,0.9433594
		c0.4208984-0.6064453,0.8378906-1.2060547,1.2578125-1.8154297c-0.4794922-0.3896484-0.9912109-0.703125-1.5488281-0.9443359
		c-0.8261719-0.3544922-1.6933594-0.4970703-2.5820312-0.546875c-0.9472656-0.0527344-1.8740234,0.03125-2.7529297,0.4257812
		c-1.5634766,0.7001953-2.1992188,2.1689453-1.8369141,3.7832031c0.2041016,0.9042969,0.8242188,1.4794922,1.6494141,1.8466797
		c0.7773438,0.3505859,1.6064453,0.4990234,2.4355469,0.6572266c0.5146484,0.0957031,1.0351562,0.1806641,1.5058594,0.4335938
		c0.3320312,0.1787109,0.5136719,0.4560547,0.5117188,0.8369141c-0.0039062,0.3759766-0.1826172,0.6679688-0.5234375,0.8027344
		c-0.3056641,0.1181641-0.6376953,0.21875-0.9580078,0.2324219c-1.3203125,0.0478516-2.6035156-0.3046875-3.6787109-1.0634766
		c-0.4677734-0.2695312-0.7236328-0.5-0.8378906-0.5849609c-0.1259766,0.8222656-0.2441406,1.1689453-0.6816406,2.0791016
		c0.6875,0.5810547,1.4511719,0.9941406,2.3017578,1.2578125c0.8115234,0.2509766,1.6464844,0.359375,2.4941406,0.3769531
		c0.8730469,0.0146484,1.7285156-0.0703125,2.5507812-0.3740234c1.3320312-0.4951172,2.1699219-1.3955078,2.3203125-2.859375
		C56.2128906,8.4316406,55.6875,7.4560547,54.5107422,6.8701172z"/>
</g>
</svg>
