<?xml version="1.0" encoding="utf-8"?>
<!-- Generator: Adobe Illustrator 16.0.0, SVG Export Plug-In . SVG Version: 6.00 Build 0)  -->
<!DOCTYPE svg PUBLIC "-//W3C//DTD SVG 1.1//EN" "http://www.w3.org/Graphics/SVG/1.1/DTD/svg11.dtd">
<svg version="1.1" id="Layer_1" xmlns="http://www.w3.org/2000/svg" xmlns:xlink="http://www.w3.org/1999/xlink" x="0px" y="0px"
	 width="124.909668px" height="20px" viewBox="0 0 124.909668 20" enable-background="new 0 0 124.909668 20" xml:space="preserve">
<g>
	<path fill="#FFFFFF" d="M13.8398438,14.6855469l-0.4018555-6.4370117
		c-0.0610352-1.0209961-0.1279297-2.1264648-0.1689453-3.0957031c-0.3115234,0.8857422-0.65625,1.8334961-1.0864258,2.9462891
		l-2.5551758,6.5864258H8.637207L6.2407227,8.2353516C5.8261719,7.0908203,5.487793,6.1464844,5.2089844,5.3032227
		c-0.0507812,1.237793-0.1225586,2.534668-0.2050781,3.6879883l-0.3857422,5.6943359H3.1938477L4.0942383,2.3100586h1.4477539
		l2.6064453,6.9916992c0.4204102,1.1171875,0.7514648,2.0625,1.0351562,2.9599609
		c0.2626953-0.8203125,0.6000977-1.7353516,1.0576172-2.9599609l2.7138672-6.9916992H14.4375l0.8261719,12.3754883H13.8398438z"/>
	<path fill="#FFFFFF" d="M19.1826172,14.8779297c-1.8989258,0-2.7636719-1.3515625-2.7636719-2.6064453
		c0-1.2470703,0.6694336-3.3291016,5.1186523-3.3740234c-0.0200195-1.4072266-0.6147461-2.0913086-1.8173828-2.0913086
		c-0.7651367,0-1.4536133,0.2036133-1.9707031,0.5732422l-0.3032227,0.2167969l-0.5078125-1.1850586l0.2094727-0.1381836
		c0.7280273-0.4794922,1.7104492-0.765625,2.628418-0.765625c2.0639648,0,3.2001953,1.2792969,3.2001953,3.6020508v3.2841797
		c0,0.5996094,0.0141602,1.2998047,0.1186523,1.9443359l0.0561523,0.3476562h-1.3920898l-0.081543-0.8027344
		C21.1191406,14.4248047,20.2680664,14.8779297,19.1826172,14.8779297z M21.4521484,10.1904297
		c-2.3618164,0-3.5595703,0.6523438-3.5595703,1.9414062c0,1.0664062,0.7114258,1.4472656,1.3774414,1.4472656
		c1.25,0,1.9541016-0.7617188,2.1962891-1.4746094c0.0483398-0.1201172,0.0717773-0.2597656,0.0717773-0.4091797v-1.5048828
		C21.5092773,10.1904297,21.4804688,10.1904297,21.4521484,10.1904297z"/>
	<path fill="#FFFFFF" d="M28.4116211,14.8779297c-2.2695312,0-3.9165039-1.9042969-3.9165039-4.5273438
		c-0.0097656-1.5,0.4731445-2.8168945,1.3583984-3.7080078c0.7280273-0.7319336,1.6918945-1.1352539,2.715332-1.1352539
		c1.1201172,0,1.9448242,0.4116211,2.4780273,0.9311523V1.6640625h1.4384766v10.7822266
		c0,0.4257812,0.0092773,1.2402344,0.0688477,1.9130859l0.0288086,0.3261719h-1.3662109l-0.0439453-0.9960938
		C30.5175781,14.4462891,29.5371094,14.8779297,28.4116211,14.8779297z M28.6210938,6.8061523
		c-1.6074219,0-2.6875,1.3891602-2.6875,3.456543c0,1.5292969,0.6904297,3.3164062,2.6352539,3.3164062
		c1.1386719,0,2.1030273-0.7871094,2.3994141-1.9570312c0.0566406-0.1738281,0.0786133-0.3535156,0.0786133-0.6259766V9.3193359
		c0-0.2714844-0.0273438-0.515625-0.0761719-0.6865234C30.7421875,7.71875,29.9291992,6.8061523,28.6210938,6.8061523z"/>
	<path fill="#FFFFFF" d="M38.3046875,14.8603516c-2.5205078,0-4.2133789-1.8125-4.2133789-4.5097656
		c0-2.8520508,1.675293-4.8432617,4.0737305-4.8432617c2.815918,0,3.5668945,2.5717773,3.5668945,4.0913086
		c0,0.2382812,0,0.3828125-0.0419922,0.5722656l-0.0527344,0.234375H35.519043c0.09375,2,1.1352539,3.1386719,2.890625,3.1386719
		c1.1210938,0,1.7167969-0.2119141,2.1938477-0.4414062l0.3095703-0.1494141l0.3911133,1.2080078L41.0883789,14.28125
		C40.7744141,14.4560547,39.8740234,14.8603516,38.3046875,14.8603516z M40.2504883,9.1416016
		c-0.03125-0.4628906-0.1650391-1.2436523-0.6870117-1.7734375c-0.3671875-0.3725586-0.8730469-0.5620117-1.503418-0.5620117
		c-1.7358398,0-2.2788086,1.5678711-2.440918,2.3354492H40.2504883z"/>
	<path fill="#FFFFFF" d="M55.0708008,14.6855469l-1.6591797-4.8857422c-0.2158203-0.625-0.4248047-1.2441406-0.6103516-1.8706055
		c-0.1835938,0.6069336-0.3955078,1.2241211-0.6396484,1.909668l-1.7314453,4.8466797h-1.1660156L46.4926758,5.699707h1.4863281
		l1.5722656,5.309082c0.1337891,0.4667969,0.2578125,0.9033203,0.3720703,1.3203125
		c0.1728516-0.5449219,0.3642578-1.1103516,0.5537109-1.6582031l1.7480469-4.9711914h1.2138672l1.6767578,4.9204102
		c0.2089844,0.6162109,0.3867188,1.1689453,0.5410156,1.6855469c0.140625-0.4902344,0.3105469-1.0263672,0.5136719-1.6464844
		l1.5507812-4.9594727h1.4921875l-2.9951172,8.9858398H55.0708008z"/>
	<path fill="#FFFFFF" d="M60.3149414,14.6855469V5.699707h1.4384766v8.9858398H60.3149414z M60.9985352,4.6220703
		c-0.5292969,0-0.9453125-0.4462891-0.9453125-1.0161133c0-0.5703125,0.4394531-1.0336914,0.9804688-1.0336914
		s0.9648438,0.4541016,0.9648438,1.0336914s-0.421875,1.0161133-0.9824219,1.0161133H60.9985352z"/>
	<path fill="#FFFFFF" d="M66.6000977,14.8603516c-0.7216797,0-1.296875-0.2373047-1.6640625-0.6865234
		c-0.3964844-0.4501953-0.5927734-1.1728516-0.5927734-2.1992188V6.9804688h-1.4150391V5.699707h1.4150391V4.2539062
		l1.4384766-0.5390625V5.699707h2.3935547v1.2807617h-2.3935547v5.1513672c0,1.2675781,0.4941406,1.4296875,0.9238281,1.4296875
		c0.4492188,0,0.71875-0.0585938,0.8652344-0.1074219l0.3339844-0.1103516l0.2021484,1.2177734l-0.2314453,0.0878906
		C67.5024414,14.7900391,67.0727539,14.8603516,66.6000977,14.8603516z"/>
	<path fill="#FFFFFF" d="M75.2211914,14.6855469V9.4238281c0-0.9648438-0.2617188-2.5830078-2.0068359-2.5830078
		c-0.9716797,0-1.8974609,0.6943359-2.2509766,1.6875C70.8901367,8.75,70.8754883,8.9521484,70.8754883,9.2666016v5.4189453h-1.4375
		V1.6640625h1.4375v4.9555664c0.2109375-0.2231445,0.453125-0.4199219,0.7148438-0.5795898
		c0.5751953-0.3486328,1.2148438-0.5327148,1.8515625-0.5327148c0.328125,0,3.2167969,0.1074219,3.2167969,3.8295898v5.3486328
		H75.2211914z"/>
	<path fill="#FFFFFF" d="M83.1508789,14.6855469V2.4990234l0.2470703-0.0444336
		c0.8554688-0.1538086,1.7255859-0.2314453,2.5869141-0.2314453c1.4453125,0,2.5917969,0.3735352,3.3183594,1.0805664
		c0.6523438,0.612793,1,1.4858398,1,2.5209961c0,1.0595703-0.2949219,1.8969727-0.8994141,2.5610352
		c-0.7958984,0.90625-2.1044922,1.4082031-3.6806641,1.4082031c-0.4394531,0-0.8027344-0.0136719-1.1328125-0.0664062v4.9580078
		H83.1508789z M84.590332,8.3945312c0.375,0.0869141,0.8300781,0.1005859,1.2021484,0.1005859
		c1.9814453,0,3.0722656-0.9174805,3.0722656-2.5830078c0-2.0800781-1.8271484-2.390625-2.9150391-2.390625
		c-0.6445312,0-1.0976562,0.0493164-1.359375,0.0898438V8.3945312z"/>
	<path fill="#FFFFFF" d="M93.8071289,14.8779297c-1.8984375,0-2.7636719-1.3515625-2.7636719-2.6064453
		c0-1.2470703,0.6699219-3.3291016,5.1191406-3.3740234c-0.0195312-1.4072266-0.6152344-2.0913086-1.8173828-2.0913086
		c-0.7646484,0-1.4541016,0.2036133-1.9707031,0.5732422l-0.3037109,0.2167969l-0.5078125-1.1850586l0.2099609-0.1381836
		c0.7275391-0.4794922,1.7099609-0.765625,2.6279297-0.765625c2.0644531,0,3.2011719,1.2792969,3.2011719,3.6020508v3.2841797
		c0,0.5996094,0.0136719,1.2998047,0.1181641,1.9443359l0.0556641,0.3476562h-1.3916016l-0.0810547-0.8027344
		C95.7446289,14.4248047,94.8930664,14.8779297,93.8071289,14.8779297z M96.0766602,10.1904297
		c-2.3613281,0-3.5585938,0.6523438-3.5585938,1.9414062c0,1.0664062,0.7109375,1.4472656,1.3769531,1.4472656
		c1.25,0,1.9541016-0.7617188,2.1962891-1.4746094c0.0478516-0.1201172,0.0712891-0.2597656,0.0712891-0.4091797v-1.5048828
		C96.1342773,10.1904297,96.105957,10.1904297,96.0766602,10.1904297z"/>
	<path fill="#FFFFFF" d="M102.8012695,18.3369141c-1.1132812,0-2.2070312-0.3046875-2.8544922-0.7949219l-0.1904297-0.1435547
		l0.5371094-1.2001953l0.2949219,0.1894531c0.6669922,0.4316406,1.453125,0.6503906,2.3349609,0.6503906
		c1.84375,0,2.7402344-1.0097656,2.7402344-3.0898438v-0.3056641c-0.6425781,0.6650391-1.5820312,1.0429688-2.6533203,1.0429688
		c-2.2226562,0-3.8984375-1.9013672-3.8984375-4.4228516c0-3.0888672,2.0986328-4.7553711,4.0742188-4.7553711
		c1.3085938,0,2.1191406,0.5327148,2.5957031,1.050293l0.0322266-0.8579102h1.3837891l-0.0273438,0.324707
		c-0.0478516,0.5791016-0.0683594,1.2197266-0.0683594,2.1416016v4.9970703c0,2.0136719-0.3847656,3.2773438-1.2460938,4.0957031
		C104.8364258,18.2314453,103.3803711,18.3369141,102.8012695,18.3369141z M103.2553711,6.8061523
		c-1.6181641,0-2.7050781,1.3540039-2.7050781,3.3686523c0,1.4824219,0.6992188,3.2128906,2.6699219,3.2128906
		c1.0322266,0,1.9443359-0.6640625,2.3212891-1.6914062c0.0771484-0.2460938,0.1220703-0.5302734,0.1220703-0.7871094V9.2314453
		c0-0.2851562-0.0146484-0.5166016-0.0878906-0.7197266C105.4350586,8.1103516,104.8540039,6.8061523,103.2553711,6.8061523z"/>
	<path fill="#FFFFFF" d="M112.9213867,14.8603516c-2.5205078,0-4.2138672-1.8125-4.2138672-4.5097656
		c0-2.8520508,1.6757812-4.8432617,4.0742188-4.8432617c2.8164062,0,3.5664062,2.5717773,3.5664062,4.0913086
		c0,0.2382812,0,0.3828125-0.0410156,0.5722656l-0.0527344,0.234375h-6.1191406c0.09375,2,1.1357422,3.1386719,2.890625,3.1386719
		c1.1210938,0,1.7167969-0.2119141,2.1943359-0.4414062l0.3095703-0.1494141l0.390625,1.2080078l-0.2148438,0.1201172
		C115.3911133,14.4560547,114.4907227,14.8603516,112.9213867,14.8603516z M114.8676758,9.1416016
		c-0.03125-0.4628906-0.1660156-1.2436523-0.6875-1.7734375c-0.3671875-0.3725586-0.8730469-0.5620117-1.5039062-0.5620117
		c-1.7353516,0-2.2783203,1.5678711-2.4404297,2.3354492H114.8676758z"/>
	<path fill="#FFFFFF" d="M119.6918945,14.8603516c-0.8222656,0-1.6582031-0.2265625-2.2910156-0.6220703l-0.2167969-0.1357422
		l0.5341797-1.2558594l0.296875,0.1835938c0.3232422,0.1982422,0.9775391,0.53125,1.7294922,0.53125
		c1.0371094,0,1.6572266-0.4824219,1.6572266-1.2900391c0-0.7373047-0.3984375-1.1474609-1.5771484-1.6259766
		c-1.5371094-0.5839844-2.3193359-1.4472656-2.3193359-2.5668945c0-1.277832,0.9912109-2.5712891,2.8857422-2.5712891
		c0.7666016,0,1.5048828,0.2109375,2.0253906,0.5795898l0.203125,0.144043l-0.5693359,1.234375l-0.2939453-0.2075195
		c-0.4257812-0.2993164-0.9316406-0.4516602-1.5048828-0.4516602c-0.9775391,0-1.3251953,0.6196289-1.3251953,1.1499023
		c0,0.6230469,0.3320312,0.9316406,1.5449219,1.4355469c1.1601562,0.4609375,2.3515625,1.1523438,2.3515625,2.7753906
		C122.8227539,13.7783203,121.5649414,14.8603516,119.6918945,14.8603516z"/>
</g>
</svg>
