<?xml version="1.0" encoding="utf-8"?>
<!-- Generator: Adobe Illustrator 16.0.0, SVG Export Plug-In . SVG Version: 6.00 Build 0)  -->
<!DOCTYPE svg PUBLIC "-//W3C//DTD SVG 1.1//EN" "http://www.w3.org/Graphics/SVG/1.1/DTD/svg11.dtd">
<svg version="1.1" id="Layer_1" xmlns="http://www.w3.org/2000/svg" xmlns:xlink="http://www.w3.org/1999/xlink" x="0px" y="0px"
	 width="154.5px" height="46px" viewBox="0 0 154.5 46" enable-background="new 0 0 154.5 46" xml:space="preserve">
<g>
	<g>
		<path fill="#808285" d="M44.8828125,10.097168c0.4399414-0.0800781,1.0498047-0.1401367,1.8798828-0.1401367
			c0.8994141,0,1.5585938,0.1899414,1.9887695,0.550293c0.3999023,0.3295898,0.659668,0.859375,0.659668,1.4892578
			c0,0.6396484-0.199707,1.1694336-0.5800781,1.5297852c-0.4897461,0.4892578-1.2592773,0.7192383-2.1289062,0.7192383
			c-0.2299805,0-0.4394531-0.0102539-0.6000977-0.0405273v2.5390625h-1.2192383V10.097168z M46.1020508,13.2358398
			c0.1508789,0.0395508,0.3500977,0.0498047,0.6000977,0.0498047c0.9194336,0,1.4794922-0.449707,1.4794922-1.2397461
			c0-0.7490234-0.5195312-1.1489258-1.3696289-1.1489258c-0.3398438,0-0.5795898,0.0297852-0.7099609,0.0595703V13.2358398z"/>
	</g>
	<g>
		<path fill="#808285" d="M54.9638672,15.284668c0,0.5800781,0.0195312,1.0600586,0.0400391,1.4594727h-1.0795898
			l-0.0600586-0.7397461H53.84375c-0.2094727,0.3496094-0.6894531,0.8500977-1.5585938,0.8500977
			c-0.8896484,0-1.6992188-0.5297852-1.6992188-2.1191406v-2.8588867h1.2290039v2.6489258
			c0,0.8095703,0.2607422,1.3295898,0.909668,1.3295898c0.4902344,0,0.8095703-0.3500977,0.9394531-0.6601562
			c0.0400391-0.1098633,0.0703125-0.2392578,0.0703125-0.3793945v-2.9389648h1.2294922V15.284668z"/>
	</g>
	<g>
		<path fill="#808285" d="M56.5581055,13.4462891c0-0.6606445-0.0102539-1.1303711-0.0400391-1.5698242h1.0698242
			l0.0395508,0.9296875h0.0405273c0.2397461-0.6899414,0.8095703-1.0400391,1.3291016-1.0400391
			c0.1201172,0,0.1904297,0.0102539,0.2900391,0.0307617v1.1591797c-0.0996094-0.0195312-0.2099609-0.0400391-0.3598633-0.0400391
			c-0.5898438,0-0.9897461,0.3798828-1.0996094,0.9296875c-0.0195312,0.1103516-0.0400391,0.2397461-0.0400391,0.3798828v2.5185547
			h-1.2294922V13.4462891z"/>
	</g>
	<g>
		<path fill="#808285" d="M63.9560547,16.5947266c-0.2597656,0.1191406-0.7695312,0.2495117-1.3793945,0.2495117
			c-1.5195312,0-2.5087891-0.9692383-2.5087891-2.4785156c0-1.4599609,0.9995117-2.5996094,2.7089844-2.5996094
			c0.449707,0,0.9091797,0.1000977,1.1894531,0.2304688l-0.2202148,0.9194336
			c-0.2001953-0.090332-0.4897461-0.1899414-0.9291992-0.1899414c-0.9399414,0-1.5,0.6894531-1.4897461,1.5795898
			c0,0.9990234,0.6489258,1.5693359,1.4897461,1.5693359c0.4296875,0,0.7290039-0.090332,0.9692383-0.1904297L63.9560547,16.5947266
			z"/>
	</g>
	<g>
		<path fill="#808285" d="M65.1176758,9.6469727h1.2402344v2.8989258h0.0195312
			c0.1494141-0.2299805,0.3496094-0.4194336,0.6098633-0.5595703c0.2402344-0.1401367,0.5297852-0.2202148,0.8393555-0.2202148
			c0.8300781,0,1.699707,0.5498047,1.699707,2.109375v2.8686523H68.296875V14.015625
			c0-0.7094727-0.2607422-1.2397461-0.9399414-1.2397461c-0.4799805,0-0.8198242,0.3198242-0.949707,0.6899414
			c-0.0400391,0.0996094-0.0493164,0.2294922-0.0493164,0.3696289v2.9086914h-1.2402344V9.6469727z"/>
	</g>
	<g>
		<path fill="#808285" d="M73.831543,16.7441406l-0.0795898-0.5395508h-0.0302734
			c-0.2998047,0.3798828-0.8095703,0.6499023-1.4394531,0.6499023c-0.9794922,0-1.5288086-0.7099609-1.5288086-1.4492188
			c0-1.2299805,1.0888672-1.8496094,2.8876953-1.8398438v-0.0795898c0-0.3198242-0.1293945-0.8496094-0.9887695-0.8496094
			c-0.4799805,0-0.9794922,0.1494141-1.3095703,0.3598633l-0.2397461-0.800293
			c0.3603516-0.2192383,0.9892578-0.4296875,1.7587891-0.4296875c1.5600586,0,2.0092773,0.9897461,2.0092773,2.0498047v1.7587891
			c0,0.4399414,0.0205078,0.8696289,0.0698242,1.1694336H73.831543z M73.671875,14.3657227
			c-0.8696289-0.0200195-1.6992188,0.1699219-1.6992188,0.9091797c0,0.4799805,0.3095703,0.7001953,0.699707,0.7001953
			c0.4897461,0,0.8491211-0.3203125,0.9594727-0.6704102c0.0297852-0.0898438,0.0400391-0.1899414,0.0400391-0.269043V14.3657227z"
			/>
	</g>
	<g>
		<path fill="#808285" d="M76.3476562,15.6147461c0.2797852,0.1699219,0.8100586,0.3500977,1.2495117,0.3500977
			c0.5395508,0,0.7802734-0.2202148,0.7802734-0.5400391c0-0.3300781-0.2001953-0.5-0.7998047-0.7094727
			c-0.9501953-0.3300781-1.3500977-0.8500977-1.3398438-1.4194336c0-0.859375,0.7099609-1.5297852,1.8393555-1.5297852
			c0.5395508,0,1.0097656,0.1401367,1.2890625,0.2900391l-0.2397461,0.8696289
			c-0.2099609-0.1196289-0.5996094-0.2797852-1.0292969-0.2797852c-0.4394531,0-0.6796875,0.2099609-0.6796875,0.5092773
			c0,0.3105469,0.2299805,0.4604492,0.8491211,0.6801758c0.8798828,0.3198242,1.2895508,0.7695312,1.2998047,1.4897461
			c0,0.8793945-0.6899414,1.519043-1.9790039,1.519043c-0.590332,0-1.1196289-0.1401367-1.4794922-0.3398438L76.3476562,15.6147461z
			"/>
	</g>
	<g>
		<path fill="#808285" d="M81.7460938,14.6552734c0.0297852,0.8798828,0.7192383,1.2592773,1.4995117,1.2592773
			c0.5698242,0,0.9794922-0.0795898,1.3496094-0.2197266l0.1796875,0.8500977c-0.4194336,0.1689453-1,0.2993164-1.6992188,0.2993164
			c-1.5791016,0-2.5087891-0.9692383-2.5087891-2.4589844c0-1.3491211,0.8193359-2.6191406,2.3793945-2.6191406
			c1.5786133,0,2.0991211,1.2998047,2.0991211,2.3691406c0,0.2304688-0.0205078,0.4101562-0.0405273,0.5200195H81.7460938z
			 M83.8852539,13.7954102c0.0097656-0.4492188-0.1899414-1.1894531-1.0097656-1.1894531
			c-0.7592773,0-1.0791016,0.6899414-1.1293945,1.1894531H83.8852539z"/>
	</g>
	<g>
		<path fill="#808285" d="M88.9208984,16.7441406v-3.9477539h-0.659668v-0.9199219h0.659668v-0.2104492
			c0-0.6293945,0.1694336-1.2587891,0.5893555-1.6586914c0.3598633-0.340332,0.8500977-0.4702148,1.2700195-0.4702148
			c0.3291016,0,0.5898438,0.0498047,0.7895508,0.1201172l-0.0898438,0.949707
			c-0.1298828-0.0498047-0.2998047-0.0898438-0.5200195-0.0898438c-0.609375,0-0.8193359,0.5092773-0.8193359,1.109375v0.25
			h1.0693359v0.9199219h-1.0595703v3.9477539H88.9208984z"/>
	</g>
	<g>
		<path fill="#808285" d="M92.284668,13.4462891c0-0.6606445-0.0097656-1.1303711-0.0400391-1.5698242h1.0703125
			l0.0400391,0.9296875h0.0395508c0.2402344-0.6899414,0.809082-1.0400391,1.3295898-1.0400391
			c0.1196289,0,0.1894531,0.0102539,0.2895508,0.0307617v1.1591797c-0.1000977-0.0195312-0.2094727-0.0400391-0.359375-0.0400391
			c-0.5898438,0-0.9897461,0.3798828-1.0996094,0.9296875c-0.0200195,0.1103516-0.0400391,0.2397461-0.0400391,0.3798828v2.5185547
			H92.284668V13.4462891z"/>
	</g>
	<g>
		<path fill="#808285" d="M100.7519531,14.265625c0,1.7895508-1.2592773,2.5888672-2.4985352,2.5888672
			c-1.3793945,0-2.4394531-0.949707-2.4394531-2.5087891c0-1.5996094,1.050293-2.5795898,2.519043-2.5795898
			C99.7827148,11.7661133,100.7519531,12.7856445,100.7519531,14.265625z M97.0839844,14.3154297
			c0,0.9394531,0.4594727,1.6494141,1.2094727,1.6494141c0.6992188,0,1.1894531-0.6899414,1.1894531-1.6699219
			c0-0.7592773-0.340332-1.6289062-1.1796875-1.6289062C97.4335938,12.6660156,97.0839844,13.5058594,97.0839844,14.3154297z"/>
	</g>
	<g>
		<path fill="#808285" d="M102.0366211,13.3256836c0-0.5600586-0.0097656-1.0292969-0.0390625-1.4492188h1.059082
			l0.0498047,0.7197266h0.0302734c0.2402344-0.3798828,0.6796875-0.8300781,1.4990234-0.8300781
			c0.6396484,0,1.1391602,0.3603516,1.3491211,0.8999023h0.0200195c0.1704102-0.2700195,0.3701172-0.4702148,0.6000977-0.6098633
			c0.2695312-0.1899414,0.5795898-0.2900391,0.9794922-0.2900391c0.8100586,0,1.6293945,0.5498047,1.6293945,2.109375v2.8686523
			h-1.199707v-2.6884766c0-0.8095703-0.2797852-1.2900391-0.8696289-1.2900391c-0.4194336,0-0.7290039,0.300293-0.8598633,0.6499023
			c-0.0292969,0.1201172-0.0595703,0.2695312-0.0595703,0.4101562v2.918457h-1.1992188V13.925293
			c0-0.6791992-0.2700195-1.159668-0.8398438-1.159668c-0.4594727,0-0.7695312,0.3603516-0.8793945,0.7001953
			c-0.050293,0.1196289-0.0698242,0.2597656-0.0698242,0.3994141v2.8789062h-1.2001953V13.3256836z"/>
	</g>
</g>
<g opacity="0.3">
	<path fill="#58595B" d="M145.8901367,44.46875H9.1679688C5.4912109,44.46875,2.5,41.6787109,2.5,38.2490234V8.7197266
		C2.5,5.2900391,5.4912109,2.5,9.1679688,2.5h136.722168c3.6767578,0,6.6679688,2.7900391,6.6679688,6.2197266v29.5292969
		C152.5581055,41.6787109,149.5668945,44.46875,145.8901367,44.46875z M9.1679688,3.5C6.0424805,3.5,3.5,5.8417969,3.5,8.7197266
		v29.5292969c0,2.8779297,2.5424805,5.2197266,5.6679688,5.2197266h136.722168c3.1254883,0,5.6679688-2.3417969,5.6679688-5.2197266
		V8.7197266c0-2.8779297-2.5424805-5.2197266-5.6679688-5.2197266H9.1679688z"/>
</g>
<g>
	<g>
		<g>
			<polygon fill="#58595B" points="47.8383789,33.7563477 47.8383789,22.2739258 43.9160156,22.2739258 43.9160156,20.5805664 
				53.7426758,20.5805664 53.7426758,22.2739258 49.8007812,22.2739258 49.8007812,33.7563477 			"/>
		</g>
	</g>
	<g>
		<g>
			<path fill="#58595B" d="M60.3354492,33.7563477V28.296875c0-1.1933594-0.3476562-2.6162109-2.0043945-2.6162109
				c-1.1025391,0-1.8623047,0.7978516-2.1254883,1.5888672c-0.0908203,0.2172852-0.1083984,0.4506836-0.1083984,0.7602539v5.7265625
				h-1.9624023V19.8916016h1.9624023v5.5102539c0.2724609-0.3623047,0.6308594-0.6748047,1.0375977-0.9003906
				c0.5615234-0.3237305,1.1811523-0.4956055,1.7895508-0.4956055c1.5566406,0,3.3730469,1.0737305,3.3730469,4.1000977v5.6503906
				H60.3354492z"/>
		</g>
	</g>
	<g>
		<g>
			<path fill="#58595B" d="M68.2070312,33.9472656c-2.8515625,0-4.6933594-1.887207-4.6933594-4.8076172
				c0-3.0229492,1.8427734-5.1337891,4.4824219-5.1337891c2.9277344,0,3.9663086,2.4248047,3.9663086,4.5019531
				c0,0.3027344-0.0288086,0.546875-0.0493164,0.7216797l-0.0224609,0.2016602h-6.487793
				c0.0849609,1.8427734,1.2099609,2.9375,3.0332031,2.9375c1.2373047,0,1.9375-0.2250977,2.5102539-0.4677734l0.1513672-0.0644531
				l0.3515625,1.4775391l-0.1040039,0.0473633C70.7529297,33.628418,69.7275391,33.9472656,68.2070312,33.9472656z
				 M70.0566406,27.9482422c-0.0102539-0.409668-0.1044922-1.2939453-0.6884766-1.8886719
				c-0.3720703-0.378418-0.878418-0.5703125-1.5058594-0.5703125c-1.6064453,0-2.2651367,1.4780273-2.4238281,2.4589844H70.0566406z
				"/>
		</g>
	</g>
	<g>
		<g>
			<path fill="#58595B" d="M84.7749023,33.7563477v-5.3823242c0-1.237793-0.3251953-2.7128906-1.8706055-2.7128906
				c-0.9379883,0-1.609375,0.722168-1.8588867,1.4379883c-0.0800781,0.2402344-0.1269531,0.53125-0.1269531,0.7963867v5.8608398
				h-1.9233398v-5.6889648c0-1.5063477-0.6704102-2.40625-1.793457-2.40625c-0.9951172,0-1.7104492,0.8232422-1.9536133,1.5874023
				c-0.0854492,0.2231445-0.1274414,0.4829102-0.1274414,0.78125v5.7265625h-1.9238281v-6.8945312
				c0-1.0410156-0.0224609-1.7880859-0.0756836-2.496582l-0.0112305-0.1489258h1.7553711l0.0654297,1.2734375
				c0.6826172-0.9848633,1.6381836-1.4838867,2.8447266-1.4838867c1.1757812,0,2.1748047,0.6538086,2.6601562,1.722168
				c0.2607422-0.4125977,0.5854492-0.7709961,0.949707-1.0439453c0.6186523-0.46875,1.2753906-0.6782227,2.1313477-0.6782227
				c1.5380859,0,3.1811523,1.0917969,3.1811523,4.1577148v5.5927734H84.7749023z"/>
		</g>
	</g>
	<g>
		<g>
			<path fill="#58595B" d="M92.6079102,33.9472656c-2.8510742,0-4.6938477-1.887207-4.6938477-4.8076172
				c0-3.0229492,1.84375-5.1337891,4.4833984-5.1337891c2.9272461,0,3.9658203,2.4248047,3.9658203,4.5019531
				c0,0.3027344-0.0283203,0.546875-0.0493164,0.7216797l-0.0219727,0.2016602h-6.487793
				c0.0844727,1.8427734,1.2099609,2.9375,3.0327148,2.9375c1.237793,0,1.9379883-0.2250977,2.5102539-0.4677734
				l0.1518555-0.0644531l0.3510742,1.4775391l-0.1040039,0.0473633
				C95.1538086,33.628418,94.128418,33.9472656,92.6079102,33.9472656z M94.4580078,27.9482422
				c-0.0107422-0.409668-0.1049805-1.2939453-0.6884766-1.8886719c-0.3720703-0.378418-0.8789062-0.5703125-1.5068359-0.5703125
				c-1.605957,0-2.2646484,1.4780273-2.4233398,2.4589844H94.4580078z"/>
		</g>
	</g>
	<g>
		<g>
			<path fill="#58595B" d="M97.7705078,33.7563477v-7.9799805H96.46875v-1.5600586h1.3017578v-0.3007812
				c0-1.5087891,0.3745117-2.6313477,1.1147461-3.3349609c0.597168-0.5800781,1.4335938-0.8994141,2.3535156-0.8994141
				c0.7319336,0,1.284668,0.1948242,1.4882812,0.277832l0.1030273,0.0424805l-0.2797852,1.5893555l-0.1645508-0.0751953
				c-0.2832031-0.1313477-0.6245117-0.1982422-1.0126953-0.1982422c-1.1171875,0-1.6606445,0.831543-1.6606445,2.5400391v0.3588867
				h2.2392578v1.5600586h-2.2392578v7.9799805H97.7705078z"/>
		</g>
	</g>
	<g>
		<g>
			<path fill="#58595B" d="M106.2724609,33.9667969c-2.6958008,0-4.5786133-2.0161133-4.5786133-4.9038086
				c0-3.0253906,1.9013672-5.0571289,4.7319336-5.0571289c2.75,0,4.597168,1.9702148,4.597168,4.9038086
				C111.0229492,32.4033203,108.637207,33.9667969,106.2724609,33.9667969z M106.387207,25.5463867
				c-1.8735352,0-2.7124023,1.7373047-2.7124023,3.4589844c0,1.9814453,1.1245117,3.4199219,2.6743164,3.4199219
				c1.5493164,0,2.6738281-1.4541016,2.6738281-3.4584961C109.0229492,27.3198242,108.1987305,25.5463867,106.387207,25.5463867z"/>
		</g>
	</g>
	<g>
		<g>
			<path fill="#58595B" d="M112.2963867,33.7563477v-6.5112305c0-1.2001953-0.0239258-2.0888672-0.0761719-2.8808594
				l-0.0097656-0.1479492h1.7563477l0.046875,1.4760742c0.5087891-1.0380859,1.4570312-1.6865234,2.5166016-1.6865234
				c0.1914062,0,0.3344727,0.0170898,0.5126953,0.0615234l0.1044922,0.0258789v1.8710938l-0.168457-0.0375977
				c-0.1713867-0.0380859-0.3339844-0.0546875-0.5444336-0.0546875c-1.0620117,0-1.8950195,0.8041992-2.1206055,2.0483398
				c-0.0371094,0.2192383-0.0751953,0.4829102-0.0751953,0.7592773v5.0766602H112.2963867z"/>
		</g>
	</g>
	<g>
		<g>
			<path fill="#58595B" d="M121.8129883,33.9472656c-2.8510742,0-4.6938477-1.887207-4.6938477-4.8076172
				c0-3.0229492,1.8432617-5.1337891,4.4829102-5.1337891c2.9277344,0,3.9663086,2.4248047,3.9663086,4.5019531
				c0,0.3027344-0.0283203,0.546875-0.0493164,0.7216797l-0.0224609,0.2016602h-6.487793
				c0.0849609,1.8427734,1.2099609,2.9375,3.0332031,2.9375c1.2373047,0,1.9375-0.2250977,2.5097656-0.4677734l0.1523438-0.0644531
				l0.3515625,1.4775391l-0.1044922,0.0473633C124.3588867,33.628418,123.3330078,33.9472656,121.8129883,33.9472656z
				 M123.6630859,27.9482422c-0.0107422-0.409668-0.1049805-1.2939453-0.6889648-1.8886719
				c-0.371582-0.378418-0.878418-0.5703125-1.5058594-0.5703125c-1.605957,0-2.2651367,1.4780273-2.4238281,2.4589844H123.6630859z"
				/>
		</g>
	</g>
	<g>
		<g>
			<path fill="#58595B" d="M128.8935547,33.9472656c-0.9960938,0-1.9702148-0.2368164-2.6728516-0.6503906l-0.0961914-0.0571289
				l0.5117188-1.5605469l0.1518555,0.0991211c0.4921875,0.3222656,1.3466797,0.6469727,2.144043,0.6469727
				c1.0390625,0,1.659668-0.4628906,1.659668-1.2382812c0-0.7255859-0.4121094-1.1225586-1.6318359-1.5732422
				c-2.0986328-0.7475586-2.5400391-1.9091797-2.5400391-2.7519531c0-1.6816406,1.3710938-2.855957,3.3349609-2.855957
				c0.8432617,0,1.7207031,0.2216797,2.3476562,0.59375l0.0976562,0.0571289l-0.515625,1.4980469l-0.1479492-0.09375
				c-0.3037109-0.1918945-0.9453125-0.5146484-1.8203125-0.5146484c-0.84375,0-1.4111328,0.4521484-1.4111328,1.1245117
				c0,0.6865234,0.515625,0.9985352,1.6713867,1.4394531c1.7666016,0.6728516,2.5195312,1.5473633,2.5195312,2.9228516
				C132.4960938,32.8037109,131.0825195,33.9472656,128.8935547,33.9472656z"/>
		</g>
	</g>
	<g>
		<g>
			<path fill="#58595B" d="M136.7973633,33.9472656c-0.824707,0-1.4897461-0.2607422-1.9223633-0.7553711
				c-0.4658203-0.484375-0.6850586-1.2807617-0.6850586-2.5024414v-4.9130859h-1.4350586v-1.5600586h1.4350586v-2.1879883
				l1.9243164-0.5136719v2.7016602h2.4111328v1.5600586h-2.4111328v4.8554688c0,1.1640625,0.3354492,1.659668,1.1235352,1.659668
				c0.4428711,0,0.7553711-0.0595703,0.9394531-0.1098633l0.1650391-0.0454102l0.0922852,1.5336914l-0.0913086,0.0375977
				C137.9677734,33.8618164,137.4189453,33.9472656,136.7973633,33.9472656z"/>
		</g>
	</g>
</g>
<g>
	<path fill="#58595B" d="M36.9624023,33.1811523C36.9624023,34.737793,35.6635742,36,34.0615234,36H13.9321289
		c-1.6020508,0-2.9008789-1.262207-2.9008789-2.8188477V13.8818359c0-1.5571289,1.2988281-2.8193359,2.9008789-2.8193359h20.1293945
		c1.6020508,0,2.9008789,1.262207,2.9008789,2.8193359V33.1811523z"/>
</g>
<g>
	<path fill="#191818" d="M42.7949219,37.6801758c-0.347168-0.3081055-0.6875-0.6171875-1.0302734-0.9233398
		c0.4086914-0.1538086,0.8266602-0.2836914,1.2670898-0.3188477c-0.128418-0.3808594-0.3808594-1.1386719-0.5083008-1.5195312
		c0.2612305,0.0180664,0.7827148,0.0551758,1.0449219,0.0742188c-0.421875-1.3442383-1.2792969-2.4711914-1.8823242-3.7294922
		c-1.3828125-1.8984375-3.8549805-2.3374023-5.7963867-3.4433594c0.203125-0.0214844,0.6147461-0.0683594,0.8208008-0.09375
		c-0.0263672-3.8432617-0.0102539-7.6860352-0.0180664-11.5302734h-1.9570312
		c-2.2333984,0.5883789-4.5947266,1.1738281-6.5273438,2.472168c-0.3100586,0.2133789-0.5996094,0.4350586-0.8701172,0.6621094
		c-0.1347656,0.1171875-0.2680664,0.237793-0.3964844,0.3652344c-0.0039062-0.0014648-0.0068359-0.0024414-0.0097656-0.003418
		c-1.0839844,1.0146484-1.8139648,2.1337891-2.3041992,3.2114258c-0.3842773,0.9423828-0.6362305,1.9379883-0.862793,2.9326172
		c-0.1835938,1.2250977-0.1049805,2.0595703-0.1049805,2.0595703c0.1411133,2.0532227,0.8310547,4.2548828,2.5996094,5.4775391
		c1.7368164,1.4672852,4.1801758,1.6196289,5.9404297,3.0307617c1.4145508,1.4238281,3.0004883,2.7749023,4.9541016,3.3740234
		c0.8588867,0.25,1.4609375,1.2827148,2.3950195,1.1899414c0.1860352-0.8276367-0.1816406-1.6323242-0.3652344-2.4194336
		c0.8325195,0.5991211,1.5854492,1.3730469,2.6054688,1.6479492c0.112793-1.1582031-0.3339844-2.2192383-0.8144531-3.2426758
		c0.7397461,0.3925781,1.4887695,0.8232422,2.0629883,1.4453125c-0.0703125-0.2246094-0.0068359-0.3886719,0.1103516-0.5258789
		c0.0053711-0.0454102,0.0136719-0.0893555,0.0288086-0.1313477v-0.0307617c0-0.0458984,0.0073242-0.0898438,0.019043-0.1323242l0,0
		c0.0004883-0.0083008,0.0014648-0.0166016,0.0019531-0.0244141c-0.0024414-0.0322266-0.003418-0.0644531-0.0014648-0.0961914
		c-0.0014648-0.0244141-0.0014648-0.0493164,0-0.074707c0-0.0004883,0-0.0014648,0-0.0014648
		c0.0014648-0.0249023,0.0039062-0.0488281,0.0087891-0.0732422l0,0l-0.0771484-0.8608398
		C42.894043,36.8100586,42.5566406,37.199707,42.7949219,37.6801758z"/>
</g>
<g>
	<path fill="#9D9FA2" d="M28.3735352,19.7363281c1.8046875-1.2026367,4.0263672-1.5361328,6.1206055-1.8793945
		c0.2133789,2.7060547,0.0288086,5.4370117,0.1503906,8.1557617c-1.2583008-0.0283203-2.534668-0.0463867-3.7553711,0.309082
		l-0.2182617-0.0151367c-0.6713867-0.9677734-1.7265625-1.6767578-2.1259766-2.8217773
		c-0.2773438-0.7329102-0.5458984-1.4702148-0.8642578-2.1884766c0.2836914-0.3740234,0.6176758-0.7456055,0.6401367-1.2451172
		C28.3330078,19.9731445,28.3608398,19.8134766,28.3735352,19.7363281L28.3735352,19.7363281z"/>
</g>
<g>
	<path fill="#FFFFFF" d="M25.2207031,30.2519531c-1.1049805-3.5830078-0.0058594-7.9438477,3.1000977-10.2006836
		c-0.0224609,0.4995117-0.3564453,0.8710938-0.6401367,1.2451172c0.3183594,0.7182617,0.5869141,1.4555664,0.8642578,2.1884766
		c0.3994141,1.1450195,1.4545898,1.8540039,2.1259766,2.8217773c0.0444336,0.1586914,0.1279297,0.4799805,0.171875,0.6425781
		c0.9985352-0.0371094,1.9941406,0.0556641,2.980957,0.2124023c-0.9213867,0.1777344-1.8359375,0.3867188-2.7348633,0.6523438
		c-0.0063477,0.168457-0.015625,0.5087891-0.0214844,0.6772461c1.5415039-0.0068359,3.2680664-0.5395508,4.6381836,0.418457
		c1.9423828,1.0766602,4.5727539,1.4643555,5.5839844,3.6987305c-0.6210938-0.1870117-1.3232422-0.6772461-1.8540039-0.0375977
		c1.1865234,0.6464844,2.3291016,1.7080078,2.1757812,3.1928711c-1.2558594-0.3271484-2.1630859-1.3881836-3.4833984-1.5537109
		c-0.1152344,0.8305664,0.8027344,1.1015625,1.2583008,1.6206055c0.5957031,0.4926758,0.6733398,1.3041992,0.8041992,2.0126953
		c-1.777832-0.2373047-2.480957-2.0981445-3.9008789-2.9379883c-0.1782227,0.1035156-0.3525391,0.2099609-0.5307617,0.3164062
		c1.0175781,0.9414062,1.9536133,2.1000977,1.9287109,3.5703125c-2.9521484-0.4838867-4.3881836-3.6235352-7.1728516-4.4667969
		C28.4013672,33.5883789,25.9921875,32.5585938,25.2207031,30.2519531L25.2207031,30.2519531z"/>
</g>
<g>
	<path fill="#FFFFFF" d="M44.9145508,31.949707c-0.4467773,0.2006836-0.9560547-0.8706055-0.4306641-0.9453125
		C44.8486328,31.2368164,44.9931641,31.5527344,44.9145508,31.949707L44.9145508,31.949707z"/>
</g>
</svg>
