<?xml version="1.0" encoding="utf-8"?>
<!-- Generator: Adobe Illustrator 16.0.0, SVG Export Plug-In . SVG Version: 6.00 Build 0)  -->
<svg version="1.2" baseProfile="tiny" id="pages_x5F_icons"
	 xmlns="http://www.w3.org/2000/svg" xmlns:xlink="http://www.w3.org/1999/xlink" x="0px" y="0px" width="14px" height="14px"
	 viewBox="0 0 14 14" xml:space="preserve">
<path d="M6,0C2.686,0,0,2.686,0,6c0,3.314,2.686,6,6,6c3.314,0,6-2.686,6-6C12,2.686,9.314,0,6,0z M6,1c2.761,0,5,2.239,5,5
	s-2.239,5-5,5S1,8.761,1,6S3.239,1,6,1z"/>
<path d="M10.221,11.673l1.42-1.409l2.113,2.129l-1.42,1.409L10.221,11.673z"/>
</svg>
