<?xml version="1.0" encoding="utf-8"?>
<!-- Generator: Adobe Illustrator 16.0.0, SVG Export Plug-In . SVG Version: 6.00 Build 0)  -->
<!DOCTYPE svg PUBLIC "-//W3C//DTD SVG 1.1//EN" "http://www.w3.org/Graphics/SVG/1.1/DTD/svg11.dtd">
<svg version="1.1" id="Layer_1" xmlns="http://www.w3.org/2000/svg" xmlns:xlink="http://www.w3.org/1999/xlink" x="0px" y="0px"
	 width="107px" height="20px" viewBox="0 0 107 20" enable-background="new 0 0 107 20" xml:space="preserve">
<g>
	<path fill="#FFFFFF" d="M5.546875,15.4746094c-1.0742188,0-2.3325195-0.3554688-2.9916992-0.8452148L2.359375,14.484375
		l0.5654297-1.2255859l0.2929688,0.2006836c0.6660156,0.4555664,1.5405273,0.7167969,2.3989258,0.7167969
		c1.5712891,0,2.5478516-0.8227539,2.5478516-2.1464844c0-1.1748047-0.6166992-1.8647461-2.199707-2.4619141
		C3.7714844,8.7753906,2.7485352,7.6533203,2.7485352,6.0371094C2.7485352,4.1323242,4.3144531,2.75,6.4726562,2.75
		c1.1801758,0,2.0678711,0.3046875,2.5053711,0.5898438L9.190918,3.4790039L8.625,4.7680664L8.3237305,4.5507812
		c-0.2583008-0.1865234-0.949707-0.5024414-1.9033203-0.5024414c-1.6611328,0-2.2509766,0.9960938-2.2509766,1.8491211
		c0,1.0898438,0.5693359,1.6806641,2.2553711,2.3413086c1.6430664,0.6660156,3.1606445,1.574707,3.1606445,3.7036133
		C9.5854492,13.7006836,8.3369141,15.4746094,5.546875,15.4746094z"/>
	<path fill="#FFFFFF" d="M13.4711914,15.4746094c-0.7216797,0-1.2973633-0.2373047-1.6645508-0.6865234
		c-0.3964844-0.4501953-0.5922852-1.1723633-0.5922852-2.1992188V7.5947266H9.7993164V6.3139648h1.4150391V4.8681641
		l1.4384766-0.5390625v1.9848633h2.3935547v1.2807617H12.652832v5.1513672c0,1.2675781,0.4936523,1.4301758,0.9233398,1.4301758
		c0.449707,0,0.7192383-0.0585938,0.8662109-0.1074219l0.3330078-0.1108398l0.2026367,1.2182617l-0.230957,0.0869141
		C14.3735352,15.4038086,13.9443359,15.4746094,13.4711914,15.4746094z"/>
	<path fill="#FFFFFF" d="M18.4360352,15.4921875c-1.8989258,0-2.7636719-1.3510742-2.7636719-2.6064453
		c0-1.246582,0.6694336-3.3286133,5.1186523-3.3745117c-0.0200195-1.4067383-0.6147461-2.0908203-1.8173828-2.0908203
		c-0.7651367,0-1.4536133,0.2036133-1.9707031,0.5732422L16.699707,8.2104492l-0.5078125-1.1850586l0.2094727-0.1381836
		c0.7280273-0.4794922,1.7104492-0.765625,2.628418-0.765625c2.0639648,0,3.2001953,1.2792969,3.2001953,3.6020508v3.284668
		c0,0.5996094,0.0141602,1.2993164,0.1186523,1.9438477l0.0561523,0.3476562h-1.3920898l-0.081543-0.8027344
		C20.3725586,15.0390625,19.5214844,15.4921875,18.4360352,15.4921875z M20.7055664,10.8041992
		c-2.3618164,0-3.5595703,0.6533203-3.5595703,1.9418945c0,1.0668945,0.7114258,1.4472656,1.3774414,1.4472656
		c1.25,0,1.9541016-0.7617188,2.1962891-1.4741211c0.0483398-0.1206055,0.0717773-0.2602539,0.0717773-0.409668v-1.5048828
		C20.7626953,10.8041992,20.7338867,10.8041992,20.7055664,10.8041992z"/>
	<path fill="#FFFFFF" d="M24.3046875,15.2998047V9.1298828c0-0.949707-0.0229492-1.7666016-0.0698242-2.4970703
		l-0.0205078-0.3188477h1.3828125l0.019043,0.9311523c0.5322266-0.7036133,1.3066406-1.1235352,2.1503906-1.1235352
		c0.1391602,0,0.2792969,0.019043,0.3989258,0.0390625l0.2504883,0.0419922v1.3862305l-0.3422852-0.0493164
		c-0.0952148-0.0136719-0.1904297-0.0146484-0.3061523-0.0146484c-0.0170898,0-0.0351562,0-0.0532227,0
		c-0.9433594,0-1.6914062,0.8212891-1.9057617,2.0913086c-0.0449219,0.2119141-0.065918,0.4545898-0.065918,0.7539062v4.9296875
		H24.3046875z"/>
	<path fill="#FFFFFF" d="M32.699707,15.4746094c-0.7216797,0-1.2973633-0.2373047-1.6645508-0.6865234
		c-0.3964844-0.4501953-0.5922852-1.1723633-0.5922852-2.1992188V7.5947266H29.027832V6.3139648h1.4150391V4.8681641
		l1.4384766-0.5390625v1.9848633h2.3935547v1.2807617h-2.3935547v5.1513672c0,1.2675781,0.4936523,1.4301758,0.9233398,1.4301758
		c0.449707,0,0.7192383-0.0585938,0.8662109-0.1074219l0.3330078-0.1108398l0.2026367,1.2182617l-0.230957,0.0869141
		C33.6020508,15.4038086,33.1728516,15.4746094,32.699707,15.4746094z"/>
	<polygon fill="#FFFFFF" points="39.8764648,15.2998047 39.8764648,2.9243164 46.2939453,2.9243164 46.2939453,4.2231445 
		41.3149414,4.2231445 41.3149414,8.1484375 46.0146484,8.1484375 46.0146484,9.4467773 41.3149414,9.4467773 
		41.3149414,14.0014648 46.5737305,14.0014648 46.5737305,15.2998047 	"/>
	<path fill="#FFFFFF" d="M53.4672852,15.2998047l-1.574707-2.2416992c-0.2607422-0.3671875-0.4902344-0.7197266-0.7202148-1.0727539
		l-0.0913086-0.1386719c-0.1982422,0.3115234-0.4057617,0.6074219-0.6357422,0.9355469l-1.7495117,2.5175781h-1.6850586
		l3.2915039-4.581543L47.190918,6.3139648h1.6791992l1.5219727,2.1713867
		c0.2832031,0.3774414,0.5166016,0.7280273,0.7358398,1.0727539c0.1831055-0.2753906,0.3701172-0.5400391,0.5585938-0.8061523
		l1.7104492-2.4379883h1.6645508l-3.1323242,4.3896484l3.2324219,4.5961914H53.4672852z"/>
	<path fill="#FFFFFF" d="M56.0761719,18.7592773v-9.472168c0-1.1157227-0.0209961-1.9091797-0.0698242-2.6538086
		l-0.0209961-0.3193359h1.4140625l0.0341797,1.0302734c0.7055664-0.8032227,1.684082-1.2226562,2.8730469-1.2226562
		c2.2958984,0,3.8989258,1.8691406,3.8989258,4.5454102c0,3.3334961-2.0634766,4.8251953-4.1083984,4.8251953
		c-1.034668,0-1.9379883-0.3603516-2.5830078-1.0117188v4.2788086H56.0761719z M60.1147461,7.4204102
		c-1.1523438,0-2.1757812,0.8208008-2.4882812,1.9960938c-0.0629883,0.2675781-0.1123047,0.4765625-0.1123047,0.6391602v1.6420898
		c0,0.2338867,0.0200195,0.4272461,0.0610352,0.5913086c0.3076172,1.1367188,1.300293,1.9042969,2.4697266,1.9042969
		c1.6791992,0,2.7226562-1.3378906,2.7226562-3.4912109C62.7675781,9.121582,61.9375,7.4204102,60.1147461,7.4204102z"/>
	<rect x="65.8588867" y="2.2783203" fill="#FFFFFF" width="1.4384766" height="13.0214844"/>
	<path fill="#FFFFFF" d="M73.0859375,15.4921875c-2.4008789,0-4.1435547-1.940918-4.1435547-4.6152344
		c0-3.1220703,2.1459961-4.7553711,4.265625-4.7553711c2.4707031,0,4.1962891,1.8979492,4.1962891,4.6152344
		c0,3.1220703-2.1635742,4.7553711-4.3007812,4.7553711H73.0859375z M73.190918,7.4204102
		c-1.940918,0-2.8100586,1.7094727-2.8100586,3.4038086c0,1.9204102,1.1777344,3.3691406,2.7397461,3.3691406
		c1.6293945,0,2.8452148-1.4711914,2.8452148-3.4213867C75.9658203,9.4248047,75.2265625,7.4204102,73.190918,7.4204102z"/>
	<path fill="#FFFFFF" d="M79.0107422,15.2998047V9.1298828c0-0.949707-0.0229492-1.7666016-0.0698242-2.4970703
		l-0.0205078-0.3188477h1.3828125l0.019043,0.9311523c0.5322266-0.7036133,1.3066406-1.1235352,2.1503906-1.1235352
		c0.1391602,0,0.2792969,0.019043,0.3989258,0.0390625l0.2504883,0.0419922v1.3862305l-0.3422852-0.0493164
		c-0.0952148-0.0136719-0.1904297-0.0146484-0.3061523-0.0146484c-0.0170898,0-0.0351562,0-0.0532227,0
		c-0.9433594,0-1.6914062,0.8212891-1.9057617,2.0913086c-0.0449219,0.2119141-0.065918,0.4545898-0.065918,0.7539062v4.9296875
		H79.0107422z"/>
	<path fill="#FFFFFF" d="M84.2792969,15.2998047V6.3139648h1.4384766v8.9858398H84.2792969z M84.9633789,5.2363281
		c-0.5302734,0-0.9458008-0.4462891-0.9458008-1.0161133c0-0.5703125,0.4399414-1.0336914,0.980957-1.0336914
		c0.5405273,0,0.9638672,0.4541016,0.9638672,1.0336914s-0.421875,1.0161133-0.9814453,1.0161133H84.9633789z"/>
	<path fill="#FFFFFF" d="M93.6665039,15.2998047v-5.2617188c0-1.1938477-0.3510742-2.6176758-2.0239258-2.6176758
		c-1.0058594,0-1.9223633,0.7099609-2.2290039,1.7255859c-0.0566406,0.2089844-0.0917969,0.4541016-0.0917969,0.6474609v5.5063477
		h-1.4384766V8.6230469c0-0.8046875-0.0195312-1.3613281-0.0688477-1.9853516l-0.0258789-0.3237305h1.4003906l0.0327148,0.9296875
		c0.6425781-0.699707,1.6074219-1.1220703,2.6479492-1.1220703c1.4921875,0,3.2348633,1.0073242,3.2348633,3.8466797v5.331543
		H93.6665039z"/>
	<path fill="#FFFFFF" d="M100.3300781,18.9511719c-1.112793,0-2.206543-0.3041992-2.8544922-0.7944336l-0.1899414-0.144043
		l0.5371094-1.2006836l0.2939453,0.1899414c0.6674805,0.4316406,1.453125,0.6508789,2.3354492,0.6508789
		c1.84375,0,2.7402344-1.0107422,2.7402344-3.0898438v-0.3061523c-0.6425781,0.6645508-1.5820312,1.0429688-2.652832,1.0429688
		c-2.2226562,0-3.8989258-1.9013672-3.8989258-4.4228516c0-3.0888672,2.0986328-4.7553711,4.0737305-4.7553711
		c1.309082,0,2.1191406,0.5327148,2.5966797,1.050293l0.0317383-0.8579102h1.3842773l-0.0273438,0.324707
		c-0.0488281,0.5825195-0.0688477,1.203125-0.0688477,2.1416016v4.996582c0,2.0136719-0.3842773,3.2768555-1.246582,4.0961914
		C102.3652344,18.8461914,100.9091797,18.9511719,100.3300781,18.9511719z M100.7841797,7.4204102
		c-1.6176758,0-2.7050781,1.3540039-2.7050781,3.3691406c0,1.4814453,0.6992188,3.2119141,2.6699219,3.2119141
		c1.0327148,0,1.9443359-0.6640625,2.3217773-1.690918c0.0766602-0.2456055,0.121582-0.5302734,0.121582-0.7871094V9.8461914
		c0-0.2851562-0.0151367-0.5170898-0.0878906-0.7202148C102.9638672,8.7246094,102.3828125,7.4204102,100.7841797,7.4204102z"/>
</g>
</svg>
