<?xml version="1.0" encoding="utf-8"?>
<!-- Generator: Adobe Illustrator 16.0.0, SVG Export Plug-In . SVG Version: 6.00 Build 0)  -->
<!DOCTYPE svg PUBLIC "-//W3C//DTD SVG 1.1//EN" "http://www.w3.org/Graphics/SVG/1.1/DTD/svg11.dtd">
<svg version="1.1" id="Layer_1" xmlns="http://www.w3.org/2000/svg" xmlns:xlink="http://www.w3.org/1999/xlink" x="0px" y="0px"
	 width="62.890625px" height="20px" viewBox="0 0 62.890625 20" enable-background="new 0 0 62.890625 20" xml:space="preserve">
<g>
	<path fill="#FFFFFF" d="M6.2299805,14.4746094c-1.0742188,0-2.3325195-0.3554688-2.9916992-0.8457031L3.0424805,13.484375
		l0.5654297-1.2255859l0.2929688,0.2001953c0.6660156,0.4560547,1.5405273,0.7167969,2.3989258,0.7167969
		c1.5712891,0,2.5478516-0.8222656,2.5478516-2.1464844c0-1.1743164-0.6166992-1.8642578-2.199707-2.4614258
		C4.4545898,7.7753906,3.4316406,6.6533203,3.4316406,5.0371094C3.4316406,3.1323242,4.9975586,1.75,7.1557617,1.75
		c1.1801758,0,2.0678711,0.3046875,2.5053711,0.5898438l0.2128906,0.1391602l-0.565918,1.2890625L9.0068359,3.5507812
		c-0.2583008-0.1865234-0.949707-0.5024414-1.9033203-0.5024414c-1.6611328,0-2.2509766,0.9960938-2.2509766,1.8491211
		c0,1.0898438,0.5693359,1.6806641,2.2553711,2.3413086c1.6430664,0.6660156,3.1606445,1.574707,3.1606445,3.7036133
		C10.2685547,12.7011719,9.0200195,14.4746094,6.2299805,14.4746094z"/>
	<path fill="#FFFFFF" d="M14.8730469,14.4921875c-0.7421875,0-3.1645508-0.2890625-3.1645508-4.0039062V5.3139648h1.4379883
		v5.0170898c0,2.5341797,1.0957031,2.8271484,1.9199219,2.8271484c1.1386719,0,1.9003906-0.8164062,2.2050781-1.5146484
		c0.0439453-0.1337891,0.1328125-0.453125,0.1328125-0.8056641V5.3139648h1.4375v6.6420898
		c0,0.796875,0.0224609,1.4384766,0.0693359,2.0205078L18.9375,14.2998047h-1.4003906l-0.0341797-0.9580078
		C16.9248047,13.9726562,16.0361328,14.4921875,14.8730469,14.4921875z"/>
	<path fill="#FFFFFF" d="M21.0214844,17.7597656V8.2871094c0-1.1157227-0.0205078-1.9091797-0.0693359-2.6538086
		l-0.0205078-0.3193359h1.4140625l0.0332031,1.0302734c0.7060547-0.8032227,1.6845703-1.2226562,2.8730469-1.2226562
		c2.296875,0,3.8994141,1.8691406,3.8994141,4.5454102c0,3.3330078-2.0634766,4.8251953-4.1083984,4.8251953
		c-1.0351562,0-1.9375-0.3603516-2.5830078-1.0117188v4.2792969H21.0214844z M25.0605469,6.4204102
		c-1.1523438,0-2.1757812,0.8208008-2.4882812,1.9960938c-0.0625,0.2675781-0.1123047,0.4765625-0.1123047,0.6391602v1.6420898
		c0,0.2338867,0.0205078,0.4272461,0.0615234,0.5913086c0.3066406,1.1367188,1.2998047,1.9042969,2.46875,1.9042969
		c1.6796875,0,2.7226562-1.3378906,2.7226562-3.4912109C27.7128906,8.121582,26.8828125,6.4204102,25.0605469,6.4204102z"/>
	<path fill="#FFFFFF" d="M30.7578125,17.7597656V8.2871094c0-1.1210938-0.0214844-1.9145508-0.0703125-2.6538086
		l-0.0205078-0.3193359h1.4140625l0.0341797,1.0302734c0.7050781-0.8032227,1.6835938-1.2226562,2.8730469-1.2226562
		c2.2958984,0,3.8984375,1.8691406,3.8984375,4.5454102c0,3.3330078-2.0625,4.8251953-4.1074219,4.8251953
		c-1.0351562,0-1.9384766-0.3603516-2.5839844-1.0117188v4.2792969H30.7578125z M34.796875,6.4204102
		c-1.1523438,0-2.1757812,0.8208008-2.4882812,1.9960938c-0.0634766,0.2675781-0.1132812,0.4765625-0.1132812,0.6391602v1.6420898
		c0,0.2338867,0.0205078,0.4272461,0.0615234,0.5913086c0.3076172,1.1367188,1.2998047,1.9042969,2.4697266,1.9042969
		c1.6796875,0,2.7226562-1.3378906,2.7226562-3.4912109C37.4492188,8.121582,36.6191406,6.4204102,34.796875,6.4204102z"/>
	<path fill="#FFFFFF" d="M44.1318359,14.4921875c-2.4013672,0-4.1435547-1.9414062-4.1435547-4.6152344
		c0-3.1220703,2.1464844-4.7553711,4.265625-4.7553711c2.4707031,0,4.1962891,1.8979492,4.1962891,4.6152344
		c0,3.1225586-2.1630859,4.7553711-4.3007812,4.7553711H44.1318359z M44.2363281,6.4204102
		c-1.9404297,0-2.8095703,1.7094727-2.8095703,3.4038086c0,1.9199219,1.1777344,3.3691406,2.7392578,3.3691406
		c1.6298828,0,2.8457031-1.4707031,2.8457031-3.4213867C47.0117188,8.4248047,46.2724609,6.4204102,44.2363281,6.4204102z"/>
	<path fill="#FFFFFF" d="M50.0566406,14.2998047V8.1298828c0-0.9550781-0.0234375-1.7714844-0.0703125-2.4970703
		l-0.0195312-0.3188477h1.3828125l0.0185547,0.9311523c0.5322266-0.7036133,1.3066406-1.1235352,2.1503906-1.1235352
		c0.1396484,0,0.2792969,0.019043,0.3994141,0.0390625l0.25,0.0419922v1.3862305l-0.3417969-0.0493164
		c-0.0957031-0.0136719-0.1914062-0.0146484-0.3066406-0.0146484c-0.0175781,0-0.0351562,0-0.0527344,0
		c-0.9433594,0-1.6914062,0.8212891-1.90625,2.0913086c-0.0449219,0.2119141-0.0664062,0.4545898-0.0664062,0.7539062v4.9296875
		H50.0566406z"/>
	<path fill="#FFFFFF" d="M58.4521484,14.4746094c-0.7216797,0-1.2978516-0.2373047-1.6650391-0.6865234
		c-0.3964844-0.4501953-0.5917969-1.1728516-0.5917969-2.1992188V6.5947266h-1.4150391V5.3139648h1.4150391V3.8681641
		l1.4384766-0.5390625v1.9848633h2.3935547v1.2807617h-2.3935547v5.1513672c0,1.2675781,0.4931641,1.4296875,0.9228516,1.4296875
		c0.4501953,0,0.7197266-0.0585938,0.8671875-0.1074219l0.3320312-0.1103516l0.203125,1.2177734l-0.2304688,0.0878906
		C59.3544922,14.4042969,58.9257812,14.4746094,58.4521484,14.4746094z"/>
</g>
</svg>
