<?xml version="1.0" encoding="utf-8"?>
<!-- Generator: Adobe Illustrator 16.0.0, SVG Export Plug-In . SVG Version: 6.00 Build 0)  -->
<!DOCTYPE svg PUBLIC "-//W3C//DTD SVG 1.1//EN" "http://www.w3.org/Graphics/SVG/1.1/DTD/svg11.dtd">
<svg version="1.1" id="Layer_1" xmlns="http://www.w3.org/2000/svg" xmlns:xlink="http://www.w3.org/1999/xlink" x="0px" y="0px"
	 width="38.6342773px" height="20px" viewBox="0 0 38.6342773 20" enable-background="new 0 0 38.6342773 20" xml:space="preserve">
<g>
	<polygon fill="#FFFFFF" points="6.6958008,15.2998047 6.6958008,4.2231445 2.8520508,4.2231445 2.8520508,2.9243164 
		11.9780273,2.9243164 11.9780273,4.2231445 8.1342773,4.2231445 8.1342773,15.2998047 	"/>
	<path fill="#FFFFFF" d="M14.9707031,15.4921875c-2.4008789,0-4.1435547-1.9404297-4.1435547-4.6152344
		c0-3.1220703,2.1459961-4.7553711,4.265625-4.7553711c2.4707031,0,4.1962891,1.8979492,4.1962891,4.6152344
		c0,3.121582-2.1635742,4.7553711-4.3007812,4.7553711H14.9707031z M15.0756836,7.4204102
		c-1.940918,0-2.8100586,1.7094727-2.8100586,3.4038086c0,1.9208984,1.1777344,3.3691406,2.7397461,3.3691406
		c1.6293945,0,2.8452148-1.4707031,2.8452148-3.4213867C17.8505859,9.4248047,17.1113281,7.4204102,15.0756836,7.4204102z"/>
	<path fill="#FFFFFF" d="M23.9985352,15.4921875c-0.7421875,0-3.1645508-0.2880859-3.1645508-4.0039062V6.3139648h1.4384766
		v5.0170898c0,2.5351562,1.0952148,2.828125,1.9194336,2.828125c1.1386719,0,1.8994141-0.8164062,2.2060547-1.515625
		c0.0429688-0.1328125,0.1318359-0.4501953,0.1318359-0.8056641V6.3139648h1.4384766v6.6420898
		c0,0.7958984,0.0214844,1.4375,0.0683594,2.0195312l0.0263672,0.3242188h-1.4013672l-0.0332031-0.9580078
		C26.050293,14.9736328,25.1616211,15.4921875,23.9985352,15.4921875z"/>
	<path fill="#FFFFFF" d="M30.1469727,15.2998047V9.1298828c0-0.9599609-0.0224609-1.7768555-0.0693359-2.4970703
		l-0.0205078-0.3188477h1.3828125l0.0185547,0.9316406c0.5332031-0.7041016,1.3076172-1.1240234,2.1513672-1.1240234
		c0.1376953,0,0.2783203,0.019043,0.3994141,0.0390625l0.25,0.0419922v1.3857422l-0.3417969-0.0488281
		c-0.0966797-0.0136719-0.1914062-0.0146484-0.3076172-0.0146484c-0.0175781,0-0.0341797,0-0.0527344,0
		c-0.9433594,0-1.6914062,0.8208008-1.9052734,2.0913086c-0.0449219,0.2119141-0.0664062,0.4541016-0.0664062,0.7539062v4.9296875
		H30.1469727z"/>
</g>
</svg>
